<?xml version="1.0" encoding="utf-8" standalone="no"?>
<!DOCTYPE svg PUBLIC "-//W3C//DTD SVG 1.1//EN"
  "http://www.w3.org/Graphics/SVG/1.1/DTD/svg11.dtd">
<!-- Created with matplotlib (http://matplotlib.org/) -->
<svg height="277.314375pt" version="1.1" viewBox="0 0 483.371773 277.314375" width="483.371773pt" xmlns="http://www.w3.org/2000/svg" xmlns:xlink="http://www.w3.org/1999/xlink">
 <defs>
  <style type="text/css">
*{stroke-linecap:butt;stroke-linejoin:round;}
  </style>
 </defs>
 <g id="figure_1">
  <g id="patch_1">
   <path d="M 0 277.314375 
L 483.371773 277.314375 
L 483.371773 0 
L 0 0 
z
" style="fill:none;"/>
  </g>
  <g id="axes_1">
   <g id="patch_2">
    <path d="M 65.404009 239.758125 
L 265.315991 239.758125 
L 265.315991 22.318125 
L 65.404009 22.318125 
z
" style="fill:#ffffff;"/>
   </g>
   <g id="matplotlib.axis_1">
    <g id="xtick_1">
     <g id="line2d_1">
      <defs>
       <path d="M 0 0 
L 0 3.5 
" id="m99fef56d6f" style="stroke:#000000;stroke-width:0.8;"/>
      </defs>
      <g>
       <use style="stroke:#000000;stroke-width:0.8;" x="131.973525" xlink:href="#m99fef56d6f" y="239.758125"/>
      </g>
     </g>
     <g id="text_1">
      <!-- $\mathdefault{10^{3}}$ -->
      <defs>
       <path d="M 12.40625 8.296875 
L 28.515625 8.296875 
L 28.515625 63.921875 
L 10.984375 60.40625 
L 10.984375 69.390625 
L 28.421875 72.90625 
L 38.28125 72.90625 
L 38.28125 8.296875 
L 54.390625 8.296875 
L 54.390625 0 
L 12.40625 0 
z
" id="DejaVuSans-31"/>
       <path d="M 31.78125 66.40625 
Q 24.171875 66.40625 20.328125 58.90625 
Q 16.5 51.421875 16.5 36.375 
Q 16.5 21.390625 20.328125 13.890625 
Q 24.171875 6.390625 31.78125 6.390625 
Q 39.453125 6.390625 43.28125 13.890625 
Q 47.125 21.390625 47.125 36.375 
Q 47.125 51.421875 43.28125 58.90625 
Q 39.453125 66.40625 31.78125 66.40625 
z
M 31.78125 74.21875 
Q 44.046875 74.21875 50.515625 64.515625 
Q 56.984375 54.828125 56.984375 36.375 
Q 56.984375 17.96875 50.515625 8.265625 
Q 44.046875 -1.421875 31.78125 -1.421875 
Q 19.53125 -1.421875 13.0625 8.265625 
Q 6.59375 17.96875 6.59375 36.375 
Q 6.59375 54.828125 13.0625 64.515625 
Q 19.53125 74.21875 31.78125 74.21875 
z
" id="DejaVuSans-30"/>
       <path d="M 40.578125 39.3125 
Q 47.65625 37.796875 51.625 33 
Q 55.609375 28.21875 55.609375 21.1875 
Q 55.609375 10.40625 48.1875 4.484375 
Q 40.765625 -1.421875 27.09375 -1.421875 
Q 22.515625 -1.421875 17.65625 -0.515625 
Q 12.796875 0.390625 7.625 2.203125 
L 7.625 11.71875 
Q 11.71875 9.328125 16.59375 8.109375 
Q 21.484375 6.890625 26.8125 6.890625 
Q 36.078125 6.890625 40.9375 10.546875 
Q 45.796875 14.203125 45.796875 21.1875 
Q 45.796875 27.640625 41.28125 31.265625 
Q 36.765625 34.90625 28.71875 34.90625 
L 20.21875 34.90625 
L 20.21875 43.015625 
L 29.109375 43.015625 
Q 36.375 43.015625 40.234375 45.921875 
Q 44.09375 48.828125 44.09375 54.296875 
Q 44.09375 59.90625 40.109375 62.90625 
Q 36.140625 65.921875 28.71875 65.921875 
Q 24.65625 65.921875 20.015625 65.03125 
Q 15.375 64.15625 9.8125 62.3125 
L 9.8125 71.09375 
Q 15.4375 72.65625 20.34375 73.4375 
Q 25.25 74.21875 29.59375 74.21875 
Q 40.828125 74.21875 47.359375 69.109375 
Q 53.90625 64.015625 53.90625 55.328125 
Q 53.90625 49.265625 50.4375 45.09375 
Q 46.96875 40.921875 40.578125 39.3125 
z
" id="DejaVuSans-33"/>
      </defs>
      <g transform="translate(123.173525 254.356562)scale(0.1 -0.1)">
       <use transform="translate(0 0.765625)" xlink:href="#DejaVuSans-31"/>
       <use transform="translate(63.623047 0.765625)" xlink:href="#DejaVuSans-30"/>
       <use transform="translate(128.203125 39.046875)scale(0.7)" xlink:href="#DejaVuSans-33"/>
      </g>
     </g>
    </g>
    <g id="xtick_2">
     <g id="line2d_2">
      <g>
       <use style="stroke:#000000;stroke-width:0.8;" x="232.59371" xlink:href="#m99fef56d6f" y="239.758125"/>
      </g>
     </g>
     <g id="text_2">
      <!-- $\mathdefault{10^{4}}$ -->
      <defs>
       <path d="M 37.796875 64.3125 
L 12.890625 25.390625 
L 37.796875 25.390625 
z
M 35.203125 72.90625 
L 47.609375 72.90625 
L 47.609375 25.390625 
L 58.015625 25.390625 
L 58.015625 17.1875 
L 47.609375 17.1875 
L 47.609375 0 
L 37.796875 0 
L 37.796875 17.1875 
L 4.890625 17.1875 
L 4.890625 26.703125 
z
" id="DejaVuSans-34"/>
      </defs>
      <g transform="translate(223.79371 254.356562)scale(0.1 -0.1)">
       <use transform="translate(0 0.684375)" xlink:href="#DejaVuSans-31"/>
       <use transform="translate(63.623047 0.684375)" xlink:href="#DejaVuSans-30"/>
       <use transform="translate(128.203125 38.965625)scale(0.7)" xlink:href="#DejaVuSans-34"/>
      </g>
     </g>
    </g>
    <g id="xtick_3">
     <g id="line2d_3">
      <defs>
       <path d="M 0 0 
L 0 2 
" id="m651145eb47" style="stroke:#000000;stroke-width:0.6;"/>
      </defs>
      <g>
       <use style="stroke:#000000;stroke-width:0.6;" x="79.361368" xlink:href="#m651145eb47" y="239.758125"/>
      </g>
     </g>
    </g>
    <g id="xtick_4">
     <g id="line2d_4">
      <g>
       <use style="stroke:#000000;stroke-width:0.6;" x="91.932727" xlink:href="#m651145eb47" y="239.758125"/>
      </g>
     </g>
    </g>
    <g id="xtick_5">
     <g id="line2d_5">
      <g>
       <use style="stroke:#000000;stroke-width:0.6;" x="101.68383" xlink:href="#m651145eb47" y="239.758125"/>
      </g>
     </g>
    </g>
    <g id="xtick_6">
     <g id="line2d_6">
      <g>
       <use style="stroke:#000000;stroke-width:0.6;" x="109.651062" xlink:href="#m651145eb47" y="239.758125"/>
      </g>
     </g>
    </g>
    <g id="xtick_7">
     <g id="line2d_7">
      <g>
       <use style="stroke:#000000;stroke-width:0.6;" x="116.387261" xlink:href="#m651145eb47" y="239.758125"/>
      </g>
     </g>
    </g>
    <g id="xtick_8">
     <g id="line2d_8">
      <g>
       <use style="stroke:#000000;stroke-width:0.6;" x="122.222421" xlink:href="#m651145eb47" y="239.758125"/>
      </g>
     </g>
    </g>
    <g id="xtick_9">
     <g id="line2d_9">
      <g>
       <use style="stroke:#000000;stroke-width:0.6;" x="127.369397" xlink:href="#m651145eb47" y="239.758125"/>
      </g>
     </g>
    </g>
    <g id="xtick_10">
     <g id="line2d_10">
      <g>
       <use style="stroke:#000000;stroke-width:0.6;" x="162.263219" xlink:href="#m651145eb47" y="239.758125"/>
      </g>
     </g>
    </g>
    <g id="xtick_11">
     <g id="line2d_11">
      <g>
       <use style="stroke:#000000;stroke-width:0.6;" x="179.981554" xlink:href="#m651145eb47" y="239.758125"/>
      </g>
     </g>
    </g>
    <g id="xtick_12">
     <g id="line2d_12">
      <g>
       <use style="stroke:#000000;stroke-width:0.6;" x="192.552913" xlink:href="#m651145eb47" y="239.758125"/>
      </g>
     </g>
    </g>
    <g id="xtick_13">
     <g id="line2d_13">
      <g>
       <use style="stroke:#000000;stroke-width:0.6;" x="202.304016" xlink:href="#m651145eb47" y="239.758125"/>
      </g>
     </g>
    </g>
    <g id="xtick_14">
     <g id="line2d_14">
      <g>
       <use style="stroke:#000000;stroke-width:0.6;" x="210.271248" xlink:href="#m651145eb47" y="239.758125"/>
      </g>
     </g>
    </g>
    <g id="xtick_15">
     <g id="line2d_15">
      <g>
       <use style="stroke:#000000;stroke-width:0.6;" x="217.007446" xlink:href="#m651145eb47" y="239.758125"/>
      </g>
     </g>
    </g>
    <g id="xtick_16">
     <g id="line2d_16">
      <g>
       <use style="stroke:#000000;stroke-width:0.6;" x="222.842607" xlink:href="#m651145eb47" y="239.758125"/>
      </g>
     </g>
    </g>
    <g id="xtick_17">
     <g id="line2d_17">
      <g>
       <use style="stroke:#000000;stroke-width:0.6;" x="227.989583" xlink:href="#m651145eb47" y="239.758125"/>
      </g>
     </g>
    </g>
    <g id="xtick_18">
     <g id="line2d_18">
      <g>
       <use style="stroke:#000000;stroke-width:0.6;" x="262.883405" xlink:href="#m651145eb47" y="239.758125"/>
      </g>
     </g>
    </g>
    <g id="text_3">
     <!-- Total grid points / core -->
     <defs>
      <path d="M -0.296875 72.90625 
L 61.375 72.90625 
L 61.375 64.59375 
L 35.5 64.59375 
L 35.5 0 
L 25.59375 0 
L 25.59375 64.59375 
L -0.296875 64.59375 
z
" id="DejaVuSans-54"/>
      <path d="M 30.609375 48.390625 
Q 23.390625 48.390625 19.1875 42.75 
Q 14.984375 37.109375 14.984375 27.296875 
Q 14.984375 17.484375 19.15625 11.84375 
Q 23.34375 6.203125 30.609375 6.203125 
Q 37.796875 6.203125 41.984375 11.859375 
Q 46.1875 17.53125 46.1875 27.296875 
Q 46.1875 37.015625 41.984375 42.703125 
Q 37.796875 48.390625 30.609375 48.390625 
z
M 30.609375 56 
Q 42.328125 56 49.015625 48.375 
Q 55.71875 40.765625 55.71875 27.296875 
Q 55.71875 13.875 49.015625 6.21875 
Q 42.328125 -1.421875 30.609375 -1.421875 
Q 18.84375 -1.421875 12.171875 6.21875 
Q 5.515625 13.875 5.515625 27.296875 
Q 5.515625 40.765625 12.171875 48.375 
Q 18.84375 56 30.609375 56 
z
" id="DejaVuSans-6f"/>
      <path d="M 18.3125 70.21875 
L 18.3125 54.6875 
L 36.8125 54.6875 
L 36.8125 47.703125 
L 18.3125 47.703125 
L 18.3125 18.015625 
Q 18.3125 11.328125 20.140625 9.421875 
Q 21.96875 7.515625 27.59375 7.515625 
L 36.8125 7.515625 
L 36.8125 0 
L 27.59375 0 
Q 17.1875 0 13.234375 3.875 
Q 9.28125 7.765625 9.28125 18.015625 
L 9.28125 47.703125 
L 2.6875 47.703125 
L 2.6875 54.6875 
L 9.28125 54.6875 
L 9.28125 70.21875 
z
" id="DejaVuSans-74"/>
      <path d="M 34.28125 27.484375 
Q 23.390625 27.484375 19.1875 25 
Q 14.984375 22.515625 14.984375 16.5 
Q 14.984375 11.71875 18.140625 8.90625 
Q 21.296875 6.109375 26.703125 6.109375 
Q 34.1875 6.109375 38.703125 11.40625 
Q 43.21875 16.703125 43.21875 25.484375 
L 43.21875 27.484375 
z
M 52.203125 31.203125 
L 52.203125 0 
L 43.21875 0 
L 43.21875 8.296875 
Q 40.140625 3.328125 35.546875 0.953125 
Q 30.953125 -1.421875 24.3125 -1.421875 
Q 15.921875 -1.421875 10.953125 3.296875 
Q 6 8.015625 6 15.921875 
Q 6 25.140625 12.171875 29.828125 
Q 18.359375 34.515625 30.609375 34.515625 
L 43.21875 34.515625 
L 43.21875 35.40625 
Q 43.21875 41.609375 39.140625 45 
Q 35.0625 48.390625 27.6875 48.390625 
Q 23 48.390625 18.546875 47.265625 
Q 14.109375 46.140625 10.015625 43.890625 
L 10.015625 52.203125 
Q 14.9375 54.109375 19.578125 55.046875 
Q 24.21875 56 28.609375 56 
Q 40.484375 56 46.34375 49.84375 
Q 52.203125 43.703125 52.203125 31.203125 
z
" id="DejaVuSans-61"/>
      <path d="M 9.421875 75.984375 
L 18.40625 75.984375 
L 18.40625 0 
L 9.421875 0 
z
" id="DejaVuSans-6c"/>
      <path id="DejaVuSans-20"/>
      <path d="M 45.40625 27.984375 
Q 45.40625 37.75 41.375 43.109375 
Q 37.359375 48.484375 30.078125 48.484375 
Q 22.859375 48.484375 18.828125 43.109375 
Q 14.796875 37.75 14.796875 27.984375 
Q 14.796875 18.265625 18.828125 12.890625 
Q 22.859375 7.515625 30.078125 7.515625 
Q 37.359375 7.515625 41.375 12.890625 
Q 45.40625 18.265625 45.40625 27.984375 
z
M 54.390625 6.78125 
Q 54.390625 -7.171875 48.1875 -13.984375 
Q 42 -20.796875 29.203125 -20.796875 
Q 24.46875 -20.796875 20.265625 -20.09375 
Q 16.0625 -19.390625 12.109375 -17.921875 
L 12.109375 -9.1875 
Q 16.0625 -11.328125 19.921875 -12.34375 
Q 23.78125 -13.375 27.78125 -13.375 
Q 36.625 -13.375 41.015625 -8.765625 
Q 45.40625 -4.15625 45.40625 5.171875 
L 45.40625 9.625 
Q 42.625 4.78125 38.28125 2.390625 
Q 33.9375 0 27.875 0 
Q 17.828125 0 11.671875 7.65625 
Q 5.515625 15.328125 5.515625 27.984375 
Q 5.515625 40.671875 11.671875 48.328125 
Q 17.828125 56 27.875 56 
Q 33.9375 56 38.28125 53.609375 
Q 42.625 51.21875 45.40625 46.390625 
L 45.40625 54.6875 
L 54.390625 54.6875 
z
" id="DejaVuSans-67"/>
      <path d="M 41.109375 46.296875 
Q 39.59375 47.171875 37.8125 47.578125 
Q 36.03125 48 33.890625 48 
Q 26.265625 48 22.1875 43.046875 
Q 18.109375 38.09375 18.109375 28.8125 
L 18.109375 0 
L 9.078125 0 
L 9.078125 54.6875 
L 18.109375 54.6875 
L 18.109375 46.1875 
Q 20.953125 51.171875 25.484375 53.578125 
Q 30.03125 56 36.53125 56 
Q 37.453125 56 38.578125 55.875 
Q 39.703125 55.765625 41.0625 55.515625 
z
" id="DejaVuSans-72"/>
      <path d="M 9.421875 54.6875 
L 18.40625 54.6875 
L 18.40625 0 
L 9.421875 0 
z
M 9.421875 75.984375 
L 18.40625 75.984375 
L 18.40625 64.59375 
L 9.421875 64.59375 
z
" id="DejaVuSans-69"/>
      <path d="M 45.40625 46.390625 
L 45.40625 75.984375 
L 54.390625 75.984375 
L 54.390625 0 
L 45.40625 0 
L 45.40625 8.203125 
Q 42.578125 3.328125 38.25 0.953125 
Q 33.9375 -1.421875 27.875 -1.421875 
Q 17.96875 -1.421875 11.734375 6.484375 
Q 5.515625 14.40625 5.515625 27.296875 
Q 5.515625 40.1875 11.734375 48.09375 
Q 17.96875 56 27.875 56 
Q 33.9375 56 38.25 53.625 
Q 42.578125 51.265625 45.40625 46.390625 
z
M 14.796875 27.296875 
Q 14.796875 17.390625 18.875 11.75 
Q 22.953125 6.109375 30.078125 6.109375 
Q 37.203125 6.109375 41.296875 11.75 
Q 45.40625 17.390625 45.40625 27.296875 
Q 45.40625 37.203125 41.296875 42.84375 
Q 37.203125 48.484375 30.078125 48.484375 
Q 22.953125 48.484375 18.875 42.84375 
Q 14.796875 37.203125 14.796875 27.296875 
z
" id="DejaVuSans-64"/>
      <path d="M 18.109375 8.203125 
L 18.109375 -20.796875 
L 9.078125 -20.796875 
L 9.078125 54.6875 
L 18.109375 54.6875 
L 18.109375 46.390625 
Q 20.953125 51.265625 25.265625 53.625 
Q 29.59375 56 35.59375 56 
Q 45.5625 56 51.78125 48.09375 
Q 58.015625 40.1875 58.015625 27.296875 
Q 58.015625 14.40625 51.78125 6.484375 
Q 45.5625 -1.421875 35.59375 -1.421875 
Q 29.59375 -1.421875 25.265625 0.953125 
Q 20.953125 3.328125 18.109375 8.203125 
z
M 48.6875 27.296875 
Q 48.6875 37.203125 44.609375 42.84375 
Q 40.53125 48.484375 33.40625 48.484375 
Q 26.265625 48.484375 22.1875 42.84375 
Q 18.109375 37.203125 18.109375 27.296875 
Q 18.109375 17.390625 22.1875 11.75 
Q 26.265625 6.109375 33.40625 6.109375 
Q 40.53125 6.109375 44.609375 11.75 
Q 48.6875 17.390625 48.6875 27.296875 
z
" id="DejaVuSans-70"/>
      <path d="M 54.890625 33.015625 
L 54.890625 0 
L 45.90625 0 
L 45.90625 32.71875 
Q 45.90625 40.484375 42.875 44.328125 
Q 39.84375 48.1875 33.796875 48.1875 
Q 26.515625 48.1875 22.3125 43.546875 
Q 18.109375 38.921875 18.109375 30.90625 
L 18.109375 0 
L 9.078125 0 
L 9.078125 54.6875 
L 18.109375 54.6875 
L 18.109375 46.1875 
Q 21.34375 51.125 25.703125 53.5625 
Q 30.078125 56 35.796875 56 
Q 45.21875 56 50.046875 50.171875 
Q 54.890625 44.34375 54.890625 33.015625 
z
" id="DejaVuSans-6e"/>
      <path d="M 44.28125 53.078125 
L 44.28125 44.578125 
Q 40.484375 46.53125 36.375 47.5 
Q 32.28125 48.484375 27.875 48.484375 
Q 21.1875 48.484375 17.84375 46.4375 
Q 14.5 44.390625 14.5 40.28125 
Q 14.5 37.15625 16.890625 35.375 
Q 19.28125 33.59375 26.515625 31.984375 
L 29.59375 31.296875 
Q 39.15625 29.25 43.1875 25.515625 
Q 47.21875 21.78125 47.21875 15.09375 
Q 47.21875 7.46875 41.1875 3.015625 
Q 35.15625 -1.421875 24.609375 -1.421875 
Q 20.21875 -1.421875 15.453125 -0.5625 
Q 10.6875 0.296875 5.421875 2 
L 5.421875 11.28125 
Q 10.40625 8.6875 15.234375 7.390625 
Q 20.0625 6.109375 24.8125 6.109375 
Q 31.15625 6.109375 34.5625 8.28125 
Q 37.984375 10.453125 37.984375 14.40625 
Q 37.984375 18.0625 35.515625 20.015625 
Q 33.0625 21.96875 24.703125 23.78125 
L 21.578125 24.515625 
Q 13.234375 26.265625 9.515625 29.90625 
Q 5.8125 33.546875 5.8125 39.890625 
Q 5.8125 47.609375 11.28125 51.796875 
Q 16.75 56 26.8125 56 
Q 31.78125 56 36.171875 55.265625 
Q 40.578125 54.546875 44.28125 53.078125 
z
" id="DejaVuSans-73"/>
      <path d="M 25.390625 72.90625 
L 33.6875 72.90625 
L 8.296875 -9.28125 
L 0 -9.28125 
z
" id="DejaVuSans-2f"/>
      <path d="M 48.78125 52.59375 
L 48.78125 44.1875 
Q 44.96875 46.296875 41.140625 47.34375 
Q 37.3125 48.390625 33.40625 48.390625 
Q 24.65625 48.390625 19.8125 42.84375 
Q 14.984375 37.3125 14.984375 27.296875 
Q 14.984375 17.28125 19.8125 11.734375 
Q 24.65625 6.203125 33.40625 6.203125 
Q 37.3125 6.203125 41.140625 7.25 
Q 44.96875 8.296875 48.78125 10.40625 
L 48.78125 2.09375 
Q 45.015625 0.34375 40.984375 -0.53125 
Q 36.96875 -1.421875 32.421875 -1.421875 
Q 20.0625 -1.421875 12.78125 6.34375 
Q 5.515625 14.109375 5.515625 27.296875 
Q 5.515625 40.671875 12.859375 48.328125 
Q 20.21875 56 33.015625 56 
Q 37.15625 56 41.109375 55.140625 
Q 45.0625 54.296875 48.78125 52.59375 
z
" id="DejaVuSans-63"/>
      <path d="M 56.203125 29.59375 
L 56.203125 25.203125 
L 14.890625 25.203125 
Q 15.484375 15.921875 20.484375 11.0625 
Q 25.484375 6.203125 34.421875 6.203125 
Q 39.59375 6.203125 44.453125 7.46875 
Q 49.3125 8.734375 54.109375 11.28125 
L 54.109375 2.78125 
Q 49.265625 0.734375 44.1875 -0.34375 
Q 39.109375 -1.421875 33.890625 -1.421875 
Q 20.796875 -1.421875 13.15625 6.1875 
Q 5.515625 13.8125 5.515625 26.8125 
Q 5.515625 40.234375 12.765625 48.109375 
Q 20.015625 56 32.328125 56 
Q 43.359375 56 49.78125 48.890625 
Q 56.203125 41.796875 56.203125 29.59375 
z
M 47.21875 32.234375 
Q 47.125 39.59375 43.09375 43.984375 
Q 39.0625 48.390625 32.421875 48.390625 
Q 24.90625 48.390625 20.390625 44.140625 
Q 15.875 39.890625 15.1875 32.171875 
z
" id="DejaVuSans-65"/>
     </defs>
     <g transform="translate(108.717812 268.034687)scale(0.1 -0.1)">
      <use xlink:href="#DejaVuSans-54"/>
      <use x="60.818359" xlink:href="#DejaVuSans-6f"/>
      <use x="122" xlink:href="#DejaVuSans-74"/>
      <use x="161.208984" xlink:href="#DejaVuSans-61"/>
      <use x="222.488281" xlink:href="#DejaVuSans-6c"/>
      <use x="250.271484" xlink:href="#DejaVuSans-20"/>
      <use x="282.058594" xlink:href="#DejaVuSans-67"/>
      <use x="345.535156" xlink:href="#DejaVuSans-72"/>
      <use x="386.648438" xlink:href="#DejaVuSans-69"/>
      <use x="414.431641" xlink:href="#DejaVuSans-64"/>
      <use x="477.908203" xlink:href="#DejaVuSans-20"/>
      <use x="509.695312" xlink:href="#DejaVuSans-70"/>
      <use x="573.171875" xlink:href="#DejaVuSans-6f"/>
      <use x="634.353516" xlink:href="#DejaVuSans-69"/>
      <use x="662.136719" xlink:href="#DejaVuSans-6e"/>
      <use x="725.515625" xlink:href="#DejaVuSans-74"/>
      <use x="764.724609" xlink:href="#DejaVuSans-73"/>
      <use x="816.824219" xlink:href="#DejaVuSans-20"/>
      <use x="848.611328" xlink:href="#DejaVuSans-2f"/>
      <use x="882.302734" xlink:href="#DejaVuSans-20"/>
      <use x="914.089844" xlink:href="#DejaVuSans-63"/>
      <use x="969.070312" xlink:href="#DejaVuSans-6f"/>
      <use x="1030.251953" xlink:href="#DejaVuSans-72"/>
      <use x="1071.333984" xlink:href="#DejaVuSans-65"/>
     </g>
    </g>
   </g>
   <g id="matplotlib.axis_2">
    <g id="ytick_1">
     <g id="line2d_19">
      <defs>
       <path d="M 0 0 
L -3.5 0 
" id="m5b7d759d6b" style="stroke:#000000;stroke-width:0.8;"/>
      </defs>
      <g>
       <use style="stroke:#000000;stroke-width:0.8;" x="65.404009" xlink:href="#m5b7d759d6b" y="146.863035"/>
      </g>
     </g>
     <g id="text_4">
      <!-- $\mathdefault{10^{0}}$ -->
      <g transform="translate(40.804009 150.662254)scale(0.1 -0.1)">
       <use transform="translate(0 0.765625)" xlink:href="#DejaVuSans-31"/>
       <use transform="translate(63.623047 0.765625)" xlink:href="#DejaVuSans-30"/>
       <use transform="translate(128.203125 39.046875)scale(0.7)" xlink:href="#DejaVuSans-30"/>
      </g>
     </g>
    </g>
    <g id="ytick_2">
     <g id="line2d_20">
      <g>
       <use style="stroke:#000000;stroke-width:0.8;" x="65.404009" xlink:href="#m5b7d759d6b" y="46.242849"/>
      </g>
     </g>
     <g id="text_5">
      <!-- $\mathdefault{10^{1}}$ -->
      <g transform="translate(40.804009 50.042068)scale(0.1 -0.1)">
       <use transform="translate(0 0.684375)" xlink:href="#DejaVuSans-31"/>
       <use transform="translate(63.623047 0.684375)" xlink:href="#DejaVuSans-30"/>
       <use transform="translate(128.203125 38.965625)scale(0.7)" xlink:href="#DejaVuSans-31"/>
      </g>
     </g>
    </g>
    <g id="ytick_3">
     <g id="line2d_21">
      <defs>
       <path d="M 0 0 
L -2 0 
" id="mcaf45290f0" style="stroke:#000000;stroke-width:0.6;"/>
      </defs>
      <g>
       <use style="stroke:#000000;stroke-width:0.6;" x="65.404009" xlink:href="#mcaf45290f0" y="217.193527"/>
      </g>
     </g>
    </g>
    <g id="ytick_4">
     <g id="line2d_22">
      <g>
       <use style="stroke:#000000;stroke-width:0.6;" x="65.404009" xlink:href="#mcaf45290f0" y="199.475192"/>
      </g>
     </g>
    </g>
    <g id="ytick_5">
     <g id="line2d_23">
      <g>
       <use style="stroke:#000000;stroke-width:0.6;" x="65.404009" xlink:href="#mcaf45290f0" y="186.903833"/>
      </g>
     </g>
    </g>
    <g id="ytick_6">
     <g id="line2d_24">
      <g>
       <use style="stroke:#000000;stroke-width:0.6;" x="65.404009" xlink:href="#mcaf45290f0" y="177.152729"/>
      </g>
     </g>
    </g>
    <g id="ytick_7">
     <g id="line2d_25">
      <g>
       <use style="stroke:#000000;stroke-width:0.6;" x="65.404009" xlink:href="#mcaf45290f0" y="169.185498"/>
      </g>
     </g>
    </g>
    <g id="ytick_8">
     <g id="line2d_26">
      <g>
       <use style="stroke:#000000;stroke-width:0.6;" x="65.404009" xlink:href="#mcaf45290f0" y="162.449299"/>
      </g>
     </g>
    </g>
    <g id="ytick_9">
     <g id="line2d_27">
      <g>
       <use style="stroke:#000000;stroke-width:0.6;" x="65.404009" xlink:href="#mcaf45290f0" y="156.614139"/>
      </g>
     </g>
    </g>
    <g id="ytick_10">
     <g id="line2d_28">
      <g>
       <use style="stroke:#000000;stroke-width:0.6;" x="65.404009" xlink:href="#mcaf45290f0" y="151.467162"/>
      </g>
     </g>
    </g>
    <g id="ytick_11">
     <g id="line2d_29">
      <g>
       <use style="stroke:#000000;stroke-width:0.6;" x="65.404009" xlink:href="#mcaf45290f0" y="116.573341"/>
      </g>
     </g>
    </g>
    <g id="ytick_12">
     <g id="line2d_30">
      <g>
       <use style="stroke:#000000;stroke-width:0.6;" x="65.404009" xlink:href="#mcaf45290f0" y="98.855006"/>
      </g>
     </g>
    </g>
    <g id="ytick_13">
     <g id="line2d_31">
      <g>
       <use style="stroke:#000000;stroke-width:0.6;" x="65.404009" xlink:href="#mcaf45290f0" y="86.283647"/>
      </g>
     </g>
    </g>
    <g id="ytick_14">
     <g id="line2d_32">
      <g>
       <use style="stroke:#000000;stroke-width:0.6;" x="65.404009" xlink:href="#mcaf45290f0" y="76.532543"/>
      </g>
     </g>
    </g>
    <g id="ytick_15">
     <g id="line2d_33">
      <g>
       <use style="stroke:#000000;stroke-width:0.6;" x="65.404009" xlink:href="#mcaf45290f0" y="68.565312"/>
      </g>
     </g>
    </g>
    <g id="ytick_16">
     <g id="line2d_34">
      <g>
       <use style="stroke:#000000;stroke-width:0.6;" x="65.404009" xlink:href="#mcaf45290f0" y="61.829113"/>
      </g>
     </g>
    </g>
    <g id="ytick_17">
     <g id="line2d_35">
      <g>
       <use style="stroke:#000000;stroke-width:0.6;" x="65.404009" xlink:href="#mcaf45290f0" y="55.993953"/>
      </g>
     </g>
    </g>
    <g id="ytick_18">
     <g id="line2d_36">
      <g>
       <use style="stroke:#000000;stroke-width:0.6;" x="65.404009" xlink:href="#mcaf45290f0" y="50.846977"/>
      </g>
     </g>
    </g>
    <g id="text_6">
     <!-- Time steps / s -->
     <defs>
      <path d="M 52 44.1875 
Q 55.375 50.25 60.0625 53.125 
Q 64.75 56 71.09375 56 
Q 79.640625 56 84.28125 50.015625 
Q 88.921875 44.046875 88.921875 33.015625 
L 88.921875 0 
L 79.890625 0 
L 79.890625 32.71875 
Q 79.890625 40.578125 77.09375 44.375 
Q 74.3125 48.1875 68.609375 48.1875 
Q 61.625 48.1875 57.5625 43.546875 
Q 53.515625 38.921875 53.515625 30.90625 
L 53.515625 0 
L 44.484375 0 
L 44.484375 32.71875 
Q 44.484375 40.625 41.703125 44.40625 
Q 38.921875 48.1875 33.109375 48.1875 
Q 26.21875 48.1875 22.15625 43.53125 
Q 18.109375 38.875 18.109375 30.90625 
L 18.109375 0 
L 9.078125 0 
L 9.078125 54.6875 
L 18.109375 54.6875 
L 18.109375 46.1875 
Q 21.1875 51.21875 25.484375 53.609375 
Q 29.78125 56 35.6875 56 
Q 41.65625 56 45.828125 52.96875 
Q 50 49.953125 52 44.1875 
z
" id="DejaVuSans-6d"/>
     </defs>
     <g transform="translate(34.724322 165.902187)rotate(-90)scale(0.1 -0.1)">
      <use xlink:href="#DejaVuSans-54"/>
      <use x="61.037109" xlink:href="#DejaVuSans-69"/>
      <use x="88.820312" xlink:href="#DejaVuSans-6d"/>
      <use x="186.232422" xlink:href="#DejaVuSans-65"/>
      <use x="247.755859" xlink:href="#DejaVuSans-20"/>
      <use x="279.542969" xlink:href="#DejaVuSans-73"/>
      <use x="331.642578" xlink:href="#DejaVuSans-74"/>
      <use x="370.851562" xlink:href="#DejaVuSans-65"/>
      <use x="432.375" xlink:href="#DejaVuSans-70"/>
      <use x="495.851562" xlink:href="#DejaVuSans-73"/>
      <use x="547.951172" xlink:href="#DejaVuSans-20"/>
      <use x="579.738281" xlink:href="#DejaVuSans-2f"/>
      <use x="613.429688" xlink:href="#DejaVuSans-20"/>
      <use x="645.216797" xlink:href="#DejaVuSans-73"/>
     </g>
    </g>
   </g>
   <g id="line2d_37">
    <path clip-path="url(#p544929616f)" d="M 104.780612 89.427016 
L 135.070306 117.1897 
L 165.36 143.478011 
L 195.649694 173.999379 
L 225.939388 202.759983 
L 256.229082 229.874489 
" style="fill:none;stroke:#1f77b4;stroke-dasharray:5.55,2.4;stroke-dashoffset:0;stroke-width:1.5;"/>
    <defs>
     <path d="M -3 0 
L 3 0 
M 0 3 
L 0 -3 
" id="m7c019dd59b" style="stroke:#1f77b4;"/>
    </defs>
    <g clip-path="url(#p544929616f)">
     <use style="fill:#1f77b4;stroke:#1f77b4;" x="104.780612" xlink:href="#m7c019dd59b" y="89.427016"/>
     <use style="fill:#1f77b4;stroke:#1f77b4;" x="135.070306" xlink:href="#m7c019dd59b" y="117.1897"/>
     <use style="fill:#1f77b4;stroke:#1f77b4;" x="165.36" xlink:href="#m7c019dd59b" y="143.478011"/>
     <use style="fill:#1f77b4;stroke:#1f77b4;" x="195.649694" xlink:href="#m7c019dd59b" y="173.999379"/>
     <use style="fill:#1f77b4;stroke:#1f77b4;" x="225.939388" xlink:href="#m7c019dd59b" y="202.759983"/>
     <use style="fill:#1f77b4;stroke:#1f77b4;" x="256.229082" xlink:href="#m7c019dd59b" y="229.874489"/>
    </g>
   </g>
   <g id="line2d_38"/>
   <g id="line2d_39">
    <path clip-path="url(#p544929616f)" d="M 74.490918 49.088601 
L 104.780612 76.124225 
L 135.070306 105.70643 
L 165.36 134.835584 
L 195.649694 163.546078 
L 225.939388 192.311127 
L 256.229082 221.316256 
" style="fill:none;stroke:#2ca02c;stroke-dasharray:5.55,2.4;stroke-dashoffset:0;stroke-width:1.5;"/>
    <defs>
     <path d="M -3 0 
L 3 0 
M 0 3 
L 0 -3 
" id="m8782fbb15d" style="stroke:#2ca02c;"/>
    </defs>
    <g clip-path="url(#p544929616f)">
     <use style="fill:#2ca02c;stroke:#2ca02c;" x="74.490918" xlink:href="#m8782fbb15d" y="49.088601"/>
     <use style="fill:#2ca02c;stroke:#2ca02c;" x="104.780612" xlink:href="#m8782fbb15d" y="76.124225"/>
     <use style="fill:#2ca02c;stroke:#2ca02c;" x="135.070306" xlink:href="#m8782fbb15d" y="105.70643"/>
     <use style="fill:#2ca02c;stroke:#2ca02c;" x="165.36" xlink:href="#m8782fbb15d" y="134.835584"/>
     <use style="fill:#2ca02c;stroke:#2ca02c;" x="195.649694" xlink:href="#m8782fbb15d" y="163.546078"/>
     <use style="fill:#2ca02c;stroke:#2ca02c;" x="225.939388" xlink:href="#m8782fbb15d" y="192.311127"/>
     <use style="fill:#2ca02c;stroke:#2ca02c;" x="256.229082" xlink:href="#m8782fbb15d" y="221.316256"/>
    </g>
   </g>
   <g id="line2d_40">
    <path clip-path="url(#p544929616f)" d="M 135.070306 105.418644 
L 165.36 134.55025 
L 195.649694 163.618894 
L 225.939388 192.131081 
L 256.229082 221.689522 
" style="fill:none;stroke:#d62728;stroke-dasharray:5.55,2.4;stroke-dashoffset:0;stroke-width:1.5;"/>
    <defs>
     <path d="M -3 0 
L 3 0 
M 0 3 
L 0 -3 
" id="m6d2282e1cd" style="stroke:#d62728;"/>
    </defs>
    <g clip-path="url(#p544929616f)">
     <use style="fill:#d62728;stroke:#d62728;" x="135.070306" xlink:href="#m6d2282e1cd" y="105.418644"/>
     <use style="fill:#d62728;stroke:#d62728;" x="165.36" xlink:href="#m6d2282e1cd" y="134.55025"/>
     <use style="fill:#d62728;stroke:#d62728;" x="195.649694" xlink:href="#m6d2282e1cd" y="163.618894"/>
     <use style="fill:#d62728;stroke:#d62728;" x="225.939388" xlink:href="#m6d2282e1cd" y="192.131081"/>
     <use style="fill:#d62728;stroke:#d62728;" x="256.229082" xlink:href="#m6d2282e1cd" y="221.689522"/>
    </g>
   </g>
   <g id="line2d_41">
    <path clip-path="url(#p544929616f)" d="M 135.070306 106.202854 
L 165.36 135.149172 
L 195.649694 164.025998 
L 225.939388 192.635772 
L 256.229082 221.85437 
" style="fill:none;stroke:#9467bd;stroke-dasharray:5.55,2.4;stroke-dashoffset:0;stroke-width:1.5;"/>
    <defs>
     <path d="M -3 0 
L 3 0 
M 0 3 
L 0 -3 
" id="m88e260166b" style="stroke:#9467bd;"/>
    </defs>
    <g clip-path="url(#p544929616f)">
     <use style="fill:#9467bd;stroke:#9467bd;" x="135.070306" xlink:href="#m88e260166b" y="106.202854"/>
     <use style="fill:#9467bd;stroke:#9467bd;" x="165.36" xlink:href="#m88e260166b" y="135.149172"/>
     <use style="fill:#9467bd;stroke:#9467bd;" x="195.649694" xlink:href="#m88e260166b" y="164.025998"/>
     <use style="fill:#9467bd;stroke:#9467bd;" x="225.939388" xlink:href="#m88e260166b" y="192.635772"/>
     <use style="fill:#9467bd;stroke:#9467bd;" x="256.229082" xlink:href="#m88e260166b" y="221.85437"/>
    </g>
   </g>
   <g id="line2d_42">
    <path clip-path="url(#p544929616f)" d="M 74.490918 32.201761 
L 104.780612 58.221803 
L 135.070306 87.750087 
L 165.36 118.320749 
L 195.649694 148.143236 
L 225.939388 177.657485 
L 256.229082 207.471162 
" style="fill:none;stroke:#8c564b;stroke-dasharray:5.55,2.4;stroke-dashoffset:0;stroke-width:1.5;"/>
    <defs>
     <path d="M -3 0 
L 3 0 
M 0 3 
L 0 -3 
" id="mdecca0fdec" style="stroke:#8c564b;"/>
    </defs>
    <g clip-path="url(#p544929616f)">
     <use style="fill:#8c564b;stroke:#8c564b;" x="74.490918" xlink:href="#mdecca0fdec" y="32.201761"/>
     <use style="fill:#8c564b;stroke:#8c564b;" x="104.780612" xlink:href="#mdecca0fdec" y="58.221803"/>
     <use style="fill:#8c564b;stroke:#8c564b;" x="135.070306" xlink:href="#mdecca0fdec" y="87.750087"/>
     <use style="fill:#8c564b;stroke:#8c564b;" x="165.36" xlink:href="#mdecca0fdec" y="118.320749"/>
     <use style="fill:#8c564b;stroke:#8c564b;" x="195.649694" xlink:href="#mdecca0fdec" y="148.143236"/>
     <use style="fill:#8c564b;stroke:#8c564b;" x="225.939388" xlink:href="#mdecca0fdec" y="177.657485"/>
     <use style="fill:#8c564b;stroke:#8c564b;" x="256.229082" xlink:href="#mdecca0fdec" y="207.471162"/>
    </g>
   </g>
   <g id="line2d_43">
    <path clip-path="url(#p544929616f)" d="M 135.070306 90.602863 
L 165.36 118.03134 
L 195.649694 148.238705 
L 225.939388 177.782815 
L 256.229082 207.789651 
" style="fill:none;stroke:#e377c2;stroke-dasharray:5.55,2.4;stroke-dashoffset:0;stroke-width:1.5;"/>
    <defs>
     <path d="M -3 0 
L 3 0 
M 0 3 
L 0 -3 
" id="mee5c918ea8" style="stroke:#e377c2;"/>
    </defs>
    <g clip-path="url(#p544929616f)">
     <use style="fill:#e377c2;stroke:#e377c2;" x="135.070306" xlink:href="#mee5c918ea8" y="90.602863"/>
     <use style="fill:#e377c2;stroke:#e377c2;" x="165.36" xlink:href="#mee5c918ea8" y="118.03134"/>
     <use style="fill:#e377c2;stroke:#e377c2;" x="195.649694" xlink:href="#mee5c918ea8" y="148.238705"/>
     <use style="fill:#e377c2;stroke:#e377c2;" x="225.939388" xlink:href="#mee5c918ea8" y="177.782815"/>
     <use style="fill:#e377c2;stroke:#e377c2;" x="256.229082" xlink:href="#mee5c918ea8" y="207.789651"/>
    </g>
   </g>
   <g id="line2d_44">
    <path clip-path="url(#p544929616f)" d="M 135.070306 106.378307 
L 165.36 132.058612 
L 195.649694 159.997134 
L 225.939388 178.524861 
L 256.229082 208.094927 
" style="fill:none;stroke:#7f7f7f;stroke-dasharray:5.55,2.4;stroke-dashoffset:0;stroke-width:1.5;"/>
    <defs>
     <path d="M -3 0 
L 3 0 
M 0 3 
L 0 -3 
" id="m9becdfcf8b" style="stroke:#7f7f7f;"/>
    </defs>
    <g clip-path="url(#p544929616f)">
     <use style="fill:#7f7f7f;stroke:#7f7f7f;" x="135.070306" xlink:href="#m9becdfcf8b" y="106.378307"/>
     <use style="fill:#7f7f7f;stroke:#7f7f7f;" x="165.36" xlink:href="#m9becdfcf8b" y="132.058612"/>
     <use style="fill:#7f7f7f;stroke:#7f7f7f;" x="195.649694" xlink:href="#m9becdfcf8b" y="159.997134"/>
     <use style="fill:#7f7f7f;stroke:#7f7f7f;" x="225.939388" xlink:href="#m9becdfcf8b" y="178.524861"/>
     <use style="fill:#7f7f7f;stroke:#7f7f7f;" x="256.229082" xlink:href="#m9becdfcf8b" y="208.094927"/>
    </g>
   </g>
   <g id="patch_3">
    <path d="M 65.404009 239.758125 
L 65.404009 22.318125 
" style="fill:none;stroke:#000000;stroke-linecap:square;stroke-linejoin:miter;stroke-width:0.8;"/>
   </g>
   <g id="patch_4">
    <path d="M 265.315991 239.758125 
L 265.315991 22.318125 
" style="fill:none;stroke:#000000;stroke-linecap:square;stroke-linejoin:miter;stroke-width:0.8;"/>
   </g>
   <g id="patch_5">
    <path d="M 65.404009 239.758125 
L 265.315991 239.758125 
" style="fill:none;stroke:#000000;stroke-linecap:square;stroke-linejoin:miter;stroke-width:0.8;"/>
   </g>
   <g id="patch_6">
    <path d="M 65.404009 22.318125 
L 265.315991 22.318125 
" style="fill:none;stroke:#000000;stroke-linecap:square;stroke-linejoin:miter;stroke-width:0.8;"/>
   </g>
   <g id="text_7">
    <!-- Scaling results for NEW CONUS 2.5km with WRFV4.0 -->
    <defs>
     <path d="M 53.515625 70.515625 
L 53.515625 60.890625 
Q 47.90625 63.578125 42.921875 64.890625 
Q 37.9375 66.21875 33.296875 66.21875 
Q 25.25 66.21875 20.875 63.09375 
Q 16.5 59.96875 16.5 54.203125 
Q 16.5 49.359375 19.40625 46.890625 
Q 22.3125 44.4375 30.421875 42.921875 
L 36.375 41.703125 
Q 47.40625 39.59375 52.65625 34.296875 
Q 57.90625 29 57.90625 20.125 
Q 57.90625 9.515625 50.796875 4.046875 
Q 43.703125 -1.421875 29.984375 -1.421875 
Q 24.8125 -1.421875 18.96875 -0.25 
Q 13.140625 0.921875 6.890625 3.21875 
L 6.890625 13.375 
Q 12.890625 10.015625 18.65625 8.296875 
Q 24.421875 6.59375 29.984375 6.59375 
Q 38.421875 6.59375 43.015625 9.90625 
Q 47.609375 13.234375 47.609375 19.390625 
Q 47.609375 24.75 44.3125 27.78125 
Q 41.015625 30.8125 33.5 32.328125 
L 27.484375 33.5 
Q 16.453125 35.6875 11.515625 40.375 
Q 6.59375 45.0625 6.59375 53.421875 
Q 6.59375 63.09375 13.40625 68.65625 
Q 20.21875 74.21875 32.171875 74.21875 
Q 37.3125 74.21875 42.625 73.28125 
Q 47.953125 72.359375 53.515625 70.515625 
z
" id="DejaVuSans-53"/>
     <path d="M 8.5 21.578125 
L 8.5 54.6875 
L 17.484375 54.6875 
L 17.484375 21.921875 
Q 17.484375 14.15625 20.5 10.265625 
Q 23.53125 6.390625 29.59375 6.390625 
Q 36.859375 6.390625 41.078125 11.03125 
Q 45.3125 15.671875 45.3125 23.6875 
L 45.3125 54.6875 
L 54.296875 54.6875 
L 54.296875 0 
L 45.3125 0 
L 45.3125 8.40625 
Q 42.046875 3.421875 37.71875 1 
Q 33.40625 -1.421875 27.6875 -1.421875 
Q 18.265625 -1.421875 13.375 4.4375 
Q 8.5 10.296875 8.5 21.578125 
z
M 31.109375 56 
z
" id="DejaVuSans-75"/>
     <path d="M 37.109375 75.984375 
L 37.109375 68.5 
L 28.515625 68.5 
Q 23.6875 68.5 21.796875 66.546875 
Q 19.921875 64.59375 19.921875 59.515625 
L 19.921875 54.6875 
L 34.71875 54.6875 
L 34.71875 47.703125 
L 19.921875 47.703125 
L 19.921875 0 
L 10.890625 0 
L 10.890625 47.703125 
L 2.296875 47.703125 
L 2.296875 54.6875 
L 10.890625 54.6875 
L 10.890625 58.5 
Q 10.890625 67.625 15.140625 71.796875 
Q 19.390625 75.984375 28.609375 75.984375 
z
" id="DejaVuSans-66"/>
     <path d="M 9.8125 72.90625 
L 23.09375 72.90625 
L 55.421875 11.921875 
L 55.421875 72.90625 
L 64.984375 72.90625 
L 64.984375 0 
L 51.703125 0 
L 19.390625 60.984375 
L 19.390625 0 
L 9.8125 0 
z
" id="DejaVuSans-4e"/>
     <path d="M 9.8125 72.90625 
L 55.90625 72.90625 
L 55.90625 64.59375 
L 19.671875 64.59375 
L 19.671875 43.015625 
L 54.390625 43.015625 
L 54.390625 34.71875 
L 19.671875 34.71875 
L 19.671875 8.296875 
L 56.78125 8.296875 
L 56.78125 0 
L 9.8125 0 
z
" id="DejaVuSans-45"/>
     <path d="M 3.328125 72.90625 
L 13.28125 72.90625 
L 28.609375 11.28125 
L 43.890625 72.90625 
L 54.984375 72.90625 
L 70.3125 11.28125 
L 85.59375 72.90625 
L 95.609375 72.90625 
L 77.296875 0 
L 64.890625 0 
L 49.515625 63.28125 
L 33.984375 0 
L 21.578125 0 
z
" id="DejaVuSans-57"/>
     <path d="M 64.40625 67.28125 
L 64.40625 56.890625 
Q 59.421875 61.53125 53.78125 63.8125 
Q 48.140625 66.109375 41.796875 66.109375 
Q 29.296875 66.109375 22.65625 58.46875 
Q 16.015625 50.828125 16.015625 36.375 
Q 16.015625 21.96875 22.65625 14.328125 
Q 29.296875 6.6875 41.796875 6.6875 
Q 48.140625 6.6875 53.78125 8.984375 
Q 59.421875 11.28125 64.40625 15.921875 
L 64.40625 5.609375 
Q 59.234375 2.09375 53.4375 0.328125 
Q 47.65625 -1.421875 41.21875 -1.421875 
Q 24.65625 -1.421875 15.125 8.703125 
Q 5.609375 18.84375 5.609375 36.375 
Q 5.609375 53.953125 15.125 64.078125 
Q 24.65625 74.21875 41.21875 74.21875 
Q 47.75 74.21875 53.53125 72.484375 
Q 59.328125 70.75 64.40625 67.28125 
z
" id="DejaVuSans-43"/>
     <path d="M 39.40625 66.21875 
Q 28.65625 66.21875 22.328125 58.203125 
Q 16.015625 50.203125 16.015625 36.375 
Q 16.015625 22.609375 22.328125 14.59375 
Q 28.65625 6.59375 39.40625 6.59375 
Q 50.140625 6.59375 56.421875 14.59375 
Q 62.703125 22.609375 62.703125 36.375 
Q 62.703125 50.203125 56.421875 58.203125 
Q 50.140625 66.21875 39.40625 66.21875 
z
M 39.40625 74.21875 
Q 54.734375 74.21875 63.90625 63.9375 
Q 73.09375 53.65625 73.09375 36.375 
Q 73.09375 19.140625 63.90625 8.859375 
Q 54.734375 -1.421875 39.40625 -1.421875 
Q 24.03125 -1.421875 14.8125 8.828125 
Q 5.609375 19.09375 5.609375 36.375 
Q 5.609375 53.65625 14.8125 63.9375 
Q 24.03125 74.21875 39.40625 74.21875 
z
" id="DejaVuSans-4f"/>
     <path d="M 8.6875 72.90625 
L 18.609375 72.90625 
L 18.609375 28.609375 
Q 18.609375 16.890625 22.84375 11.734375 
Q 27.09375 6.59375 36.625 6.59375 
Q 46.09375 6.59375 50.34375 11.734375 
Q 54.59375 16.890625 54.59375 28.609375 
L 54.59375 72.90625 
L 64.5 72.90625 
L 64.5 27.390625 
Q 64.5 13.140625 57.4375 5.859375 
Q 50.390625 -1.421875 36.625 -1.421875 
Q 22.796875 -1.421875 15.734375 5.859375 
Q 8.6875 13.140625 8.6875 27.390625 
z
" id="DejaVuSans-55"/>
     <path d="M 19.1875 8.296875 
L 53.609375 8.296875 
L 53.609375 0 
L 7.328125 0 
L 7.328125 8.296875 
Q 12.9375 14.109375 22.625 23.890625 
Q 32.328125 33.6875 34.8125 36.53125 
Q 39.546875 41.84375 41.421875 45.53125 
Q 43.3125 49.21875 43.3125 52.78125 
Q 43.3125 58.59375 39.234375 62.25 
Q 35.15625 65.921875 28.609375 65.921875 
Q 23.96875 65.921875 18.8125 64.3125 
Q 13.671875 62.703125 7.8125 59.421875 
L 7.8125 69.390625 
Q 13.765625 71.78125 18.9375 73 
Q 24.125 74.21875 28.421875 74.21875 
Q 39.75 74.21875 46.484375 68.546875 
Q 53.21875 62.890625 53.21875 53.421875 
Q 53.21875 48.921875 51.53125 44.890625 
Q 49.859375 40.875 45.40625 35.40625 
Q 44.1875 33.984375 37.640625 27.21875 
Q 31.109375 20.453125 19.1875 8.296875 
z
" id="DejaVuSans-32"/>
     <path d="M 10.6875 12.40625 
L 21 12.40625 
L 21 0 
L 10.6875 0 
z
" id="DejaVuSans-2e"/>
     <path d="M 10.796875 72.90625 
L 49.515625 72.90625 
L 49.515625 64.59375 
L 19.828125 64.59375 
L 19.828125 46.734375 
Q 21.96875 47.46875 24.109375 47.828125 
Q 26.265625 48.1875 28.421875 48.1875 
Q 40.625 48.1875 47.75 41.5 
Q 54.890625 34.8125 54.890625 23.390625 
Q 54.890625 11.625 47.5625 5.09375 
Q 40.234375 -1.421875 26.90625 -1.421875 
Q 22.3125 -1.421875 17.546875 -0.640625 
Q 12.796875 0.140625 7.71875 1.703125 
L 7.71875 11.625 
Q 12.109375 9.234375 16.796875 8.0625 
Q 21.484375 6.890625 26.703125 6.890625 
Q 35.15625 6.890625 40.078125 11.328125 
Q 45.015625 15.765625 45.015625 23.390625 
Q 45.015625 31 40.078125 35.4375 
Q 35.15625 39.890625 26.703125 39.890625 
Q 22.75 39.890625 18.8125 39.015625 
Q 14.890625 38.140625 10.796875 36.28125 
z
" id="DejaVuSans-35"/>
     <path d="M 9.078125 75.984375 
L 18.109375 75.984375 
L 18.109375 31.109375 
L 44.921875 54.6875 
L 56.390625 54.6875 
L 27.390625 29.109375 
L 57.625 0 
L 45.90625 0 
L 18.109375 26.703125 
L 18.109375 0 
L 9.078125 0 
z
" id="DejaVuSans-6b"/>
     <path d="M 4.203125 54.6875 
L 13.1875 54.6875 
L 24.421875 12.015625 
L 35.59375 54.6875 
L 46.1875 54.6875 
L 57.421875 12.015625 
L 68.609375 54.6875 
L 77.59375 54.6875 
L 63.28125 0 
L 52.6875 0 
L 40.921875 44.828125 
L 29.109375 0 
L 18.5 0 
z
" id="DejaVuSans-77"/>
     <path d="M 54.890625 33.015625 
L 54.890625 0 
L 45.90625 0 
L 45.90625 32.71875 
Q 45.90625 40.484375 42.875 44.328125 
Q 39.84375 48.1875 33.796875 48.1875 
Q 26.515625 48.1875 22.3125 43.546875 
Q 18.109375 38.921875 18.109375 30.90625 
L 18.109375 0 
L 9.078125 0 
L 9.078125 75.984375 
L 18.109375 75.984375 
L 18.109375 46.1875 
Q 21.34375 51.125 25.703125 53.5625 
Q 30.078125 56 35.796875 56 
Q 45.21875 56 50.046875 50.171875 
Q 54.890625 44.34375 54.890625 33.015625 
z
" id="DejaVuSans-68"/>
     <path d="M 44.390625 34.1875 
Q 47.5625 33.109375 50.5625 29.59375 
Q 53.5625 26.078125 56.59375 19.921875 
L 66.609375 0 
L 56 0 
L 46.6875 18.703125 
Q 43.0625 26.03125 39.671875 28.421875 
Q 36.28125 30.8125 30.421875 30.8125 
L 19.671875 30.8125 
L 19.671875 0 
L 9.8125 0 
L 9.8125 72.90625 
L 32.078125 72.90625 
Q 44.578125 72.90625 50.734375 67.671875 
Q 56.890625 62.453125 56.890625 51.90625 
Q 56.890625 45.015625 53.6875 40.46875 
Q 50.484375 35.9375 44.390625 34.1875 
z
M 19.671875 64.796875 
L 19.671875 38.921875 
L 32.078125 38.921875 
Q 39.203125 38.921875 42.84375 42.21875 
Q 46.484375 45.515625 46.484375 51.90625 
Q 46.484375 58.296875 42.84375 61.546875 
Q 39.203125 64.796875 32.078125 64.796875 
z
" id="DejaVuSans-52"/>
     <path d="M 9.8125 72.90625 
L 51.703125 72.90625 
L 51.703125 64.59375 
L 19.671875 64.59375 
L 19.671875 43.109375 
L 48.578125 43.109375 
L 48.578125 34.8125 
L 19.671875 34.8125 
L 19.671875 0 
L 9.8125 0 
z
" id="DejaVuSans-46"/>
     <path d="M 28.609375 0 
L 0.78125 72.90625 
L 11.078125 72.90625 
L 34.1875 11.53125 
L 57.328125 72.90625 
L 67.578125 72.90625 
L 39.796875 0 
z
" id="DejaVuSans-56"/>
    </defs>
    <g transform="translate(7.2 16.318125)scale(0.12 -0.12)">
     <use xlink:href="#DejaVuSans-53"/>
     <use x="63.476562" xlink:href="#DejaVuSans-63"/>
     <use x="118.457031" xlink:href="#DejaVuSans-61"/>
     <use x="179.736328" xlink:href="#DejaVuSans-6c"/>
     <use x="207.519531" xlink:href="#DejaVuSans-69"/>
     <use x="235.302734" xlink:href="#DejaVuSans-6e"/>
     <use x="298.681641" xlink:href="#DejaVuSans-67"/>
     <use x="362.158203" xlink:href="#DejaVuSans-20"/>
     <use x="393.945312" xlink:href="#DejaVuSans-72"/>
     <use x="435.027344" xlink:href="#DejaVuSans-65"/>
     <use x="496.550781" xlink:href="#DejaVuSans-73"/>
     <use x="548.650391" xlink:href="#DejaVuSans-75"/>
     <use x="612.029297" xlink:href="#DejaVuSans-6c"/>
     <use x="639.8125" xlink:href="#DejaVuSans-74"/>
     <use x="679.021484" xlink:href="#DejaVuSans-73"/>
     <use x="731.121094" xlink:href="#DejaVuSans-20"/>
     <use x="762.908203" xlink:href="#DejaVuSans-66"/>
     <use x="798.113281" xlink:href="#DejaVuSans-6f"/>
     <use x="859.294922" xlink:href="#DejaVuSans-72"/>
     <use x="900.408203" xlink:href="#DejaVuSans-20"/>
     <use x="932.195312" xlink:href="#DejaVuSans-4e"/>
     <use x="1007" xlink:href="#DejaVuSans-45"/>
     <use x="1070.183594" xlink:href="#DejaVuSans-57"/>
     <use x="1169.060547" xlink:href="#DejaVuSans-20"/>
     <use x="1200.847656" xlink:href="#DejaVuSans-43"/>
     <use x="1270.671875" xlink:href="#DejaVuSans-4f"/>
     <use x="1349.382812" xlink:href="#DejaVuSans-4e"/>
     <use x="1424.1875" xlink:href="#DejaVuSans-55"/>
     <use x="1497.380859" xlink:href="#DejaVuSans-53"/>
     <use x="1560.857422" xlink:href="#DejaVuSans-20"/>
     <use x="1592.644531" xlink:href="#DejaVuSans-32"/>
     <use x="1656.267578" xlink:href="#DejaVuSans-2e"/>
     <use x="1688.054688" xlink:href="#DejaVuSans-35"/>
     <use x="1751.677734" xlink:href="#DejaVuSans-6b"/>
     <use x="1809.587891" xlink:href="#DejaVuSans-6d"/>
     <use x="1907" xlink:href="#DejaVuSans-20"/>
     <use x="1938.787109" xlink:href="#DejaVuSans-77"/>
     <use x="2020.574219" xlink:href="#DejaVuSans-69"/>
     <use x="2048.357422" xlink:href="#DejaVuSans-74"/>
     <use x="2087.566406" xlink:href="#DejaVuSans-68"/>
     <use x="2150.945312" xlink:href="#DejaVuSans-20"/>
     <use x="2182.732422" xlink:href="#DejaVuSans-57"/>
     <use x="2281.609375" xlink:href="#DejaVuSans-52"/>
     <use x="2351.091797" xlink:href="#DejaVuSans-46"/>
     <use x="2408.611328" xlink:href="#DejaVuSans-56"/>
     <use x="2477.019531" xlink:href="#DejaVuSans-34"/>
     <use x="2540.642578" xlink:href="#DejaVuSans-2e"/>
     <use x="2572.429688" xlink:href="#DejaVuSans-30"/>
    </g>
   </g>
   <g id="legend_1">
    <g id="patch_7">
     <path d="M 296.354585 147.743125 
L 474.171773 147.743125 
Q 476.171773 147.743125 476.171773 145.743125 
L 476.171773 29.318125 
Q 476.171773 27.318125 474.171773 27.318125 
L 296.354585 27.318125 
Q 294.354585 27.318125 294.354585 29.318125 
L 294.354585 145.743125 
Q 294.354585 147.743125 296.354585 147.743125 
z
" style="fill:#ffffff;opacity:0.8;stroke:#cccccc;stroke-linejoin:miter;"/>
    </g>
    <g id="line2d_45">
     <path d="M 298.354585 35.416562 
L 318.354585 35.416562 
" style="fill:none;stroke:#1f77b4;stroke-dasharray:5.55,2.4;stroke-dashoffset:0;stroke-width:1.5;"/>
    </g>
    <g id="line2d_46">
     <g>
      <use style="fill:#1f77b4;stroke:#1f77b4;" x="308.354585" xlink:href="#m7c019dd59b" y="35.416562"/>
     </g>
    </g>
    <g id="text_8">
     <!-- gnu6.3.0 - mpich3.2 -->
     <defs>
      <path d="M 33.015625 40.375 
Q 26.375 40.375 22.484375 35.828125 
Q 18.609375 31.296875 18.609375 23.390625 
Q 18.609375 15.53125 22.484375 10.953125 
Q 26.375 6.390625 33.015625 6.390625 
Q 39.65625 6.390625 43.53125 10.953125 
Q 47.40625 15.53125 47.40625 23.390625 
Q 47.40625 31.296875 43.53125 35.828125 
Q 39.65625 40.375 33.015625 40.375 
z
M 52.59375 71.296875 
L 52.59375 62.3125 
Q 48.875 64.0625 45.09375 64.984375 
Q 41.3125 65.921875 37.59375 65.921875 
Q 27.828125 65.921875 22.671875 59.328125 
Q 17.53125 52.734375 16.796875 39.40625 
Q 19.671875 43.65625 24.015625 45.921875 
Q 28.375 48.1875 33.59375 48.1875 
Q 44.578125 48.1875 50.953125 41.515625 
Q 57.328125 34.859375 57.328125 23.390625 
Q 57.328125 12.15625 50.6875 5.359375 
Q 44.046875 -1.421875 33.015625 -1.421875 
Q 20.359375 -1.421875 13.671875 8.265625 
Q 6.984375 17.96875 6.984375 36.375 
Q 6.984375 53.65625 15.1875 63.9375 
Q 23.390625 74.21875 37.203125 74.21875 
Q 40.921875 74.21875 44.703125 73.484375 
Q 48.484375 72.75 52.59375 71.296875 
z
" id="DejaVuSans-36"/>
      <path d="M 4.890625 31.390625 
L 31.203125 31.390625 
L 31.203125 23.390625 
L 4.890625 23.390625 
z
" id="DejaVuSans-2d"/>
     </defs>
     <g transform="translate(326.354585 38.916562)scale(0.1 -0.1)">
      <use xlink:href="#DejaVuSans-67"/>
      <use x="63.476562" xlink:href="#DejaVuSans-6e"/>
      <use x="126.855469" xlink:href="#DejaVuSans-75"/>
      <use x="190.234375" xlink:href="#DejaVuSans-36"/>
      <use x="253.857422" xlink:href="#DejaVuSans-2e"/>
      <use x="285.644531" xlink:href="#DejaVuSans-33"/>
      <use x="349.267578" xlink:href="#DejaVuSans-2e"/>
      <use x="381.054688" xlink:href="#DejaVuSans-30"/>
      <use x="444.677734" xlink:href="#DejaVuSans-20"/>
      <use x="476.464844" xlink:href="#DejaVuSans-2d"/>
      <use x="512.548828" xlink:href="#DejaVuSans-20"/>
      <use x="544.335938" xlink:href="#DejaVuSans-6d"/>
      <use x="641.748047" xlink:href="#DejaVuSans-70"/>
      <use x="705.224609" xlink:href="#DejaVuSans-69"/>
      <use x="733.007812" xlink:href="#DejaVuSans-63"/>
      <use x="787.988281" xlink:href="#DejaVuSans-68"/>
      <use x="851.367188" xlink:href="#DejaVuSans-33"/>
      <use x="914.990234" xlink:href="#DejaVuSans-2e"/>
      <use x="946.777344" xlink:href="#DejaVuSans-32"/>
     </g>
    </g>
    <g id="line2d_47">
     <path d="M 298.354585 50.094688 
L 318.354585 50.094688 
" style="fill:none;stroke:#ff7f0e;stroke-dasharray:5.55,2.4;stroke-dashoffset:0;stroke-width:1.5;"/>
    </g>
    <g id="line2d_48">
     <defs>
      <path d="M -3 0 
L 3 0 
M 0 3 
L 0 -3 
" id="m075843a97e" style="stroke:#ff7f0e;"/>
     </defs>
     <g>
      <use style="fill:#ff7f0e;stroke:#ff7f0e;" x="308.354585" xlink:href="#m075843a97e" y="50.094688"/>
     </g>
    </g>
    <g id="text_9">
     <!-- gnu6.3.0 - mpt2.18 -->
     <defs>
      <path d="M 31.78125 34.625 
Q 24.75 34.625 20.71875 30.859375 
Q 16.703125 27.09375 16.703125 20.515625 
Q 16.703125 13.921875 20.71875 10.15625 
Q 24.75 6.390625 31.78125 6.390625 
Q 38.8125 6.390625 42.859375 10.171875 
Q 46.921875 13.96875 46.921875 20.515625 
Q 46.921875 27.09375 42.890625 30.859375 
Q 38.875 34.625 31.78125 34.625 
z
M 21.921875 38.8125 
Q 15.578125 40.375 12.03125 44.71875 
Q 8.5 49.078125 8.5 55.328125 
Q 8.5 64.0625 14.71875 69.140625 
Q 20.953125 74.21875 31.78125 74.21875 
Q 42.671875 74.21875 48.875 69.140625 
Q 55.078125 64.0625 55.078125 55.328125 
Q 55.078125 49.078125 51.53125 44.71875 
Q 48 40.375 41.703125 38.8125 
Q 48.828125 37.15625 52.796875 32.3125 
Q 56.78125 27.484375 56.78125 20.515625 
Q 56.78125 9.90625 50.3125 4.234375 
Q 43.84375 -1.421875 31.78125 -1.421875 
Q 19.734375 -1.421875 13.25 4.234375 
Q 6.78125 9.90625 6.78125 20.515625 
Q 6.78125 27.484375 10.78125 32.3125 
Q 14.796875 37.15625 21.921875 38.8125 
z
M 18.3125 54.390625 
Q 18.3125 48.734375 21.84375 45.5625 
Q 25.390625 42.390625 31.78125 42.390625 
Q 38.140625 42.390625 41.71875 45.5625 
Q 45.3125 48.734375 45.3125 54.390625 
Q 45.3125 60.0625 41.71875 63.234375 
Q 38.140625 66.40625 31.78125 66.40625 
Q 25.390625 66.40625 21.84375 63.234375 
Q 18.3125 60.0625 18.3125 54.390625 
z
" id="DejaVuSans-38"/>
     </defs>
     <g transform="translate(326.354585 53.594688)scale(0.1 -0.1)">
      <use xlink:href="#DejaVuSans-67"/>
      <use x="63.476562" xlink:href="#DejaVuSans-6e"/>
      <use x="126.855469" xlink:href="#DejaVuSans-75"/>
      <use x="190.234375" xlink:href="#DejaVuSans-36"/>
      <use x="253.857422" xlink:href="#DejaVuSans-2e"/>
      <use x="285.644531" xlink:href="#DejaVuSans-33"/>
      <use x="349.267578" xlink:href="#DejaVuSans-2e"/>
      <use x="381.054688" xlink:href="#DejaVuSans-30"/>
      <use x="444.677734" xlink:href="#DejaVuSans-20"/>
      <use x="476.464844" xlink:href="#DejaVuSans-2d"/>
      <use x="512.548828" xlink:href="#DejaVuSans-20"/>
      <use x="544.335938" xlink:href="#DejaVuSans-6d"/>
      <use x="641.748047" xlink:href="#DejaVuSans-70"/>
      <use x="705.224609" xlink:href="#DejaVuSans-74"/>
      <use x="744.433594" xlink:href="#DejaVuSans-32"/>
      <use x="808.056641" xlink:href="#DejaVuSans-2e"/>
      <use x="839.84375" xlink:href="#DejaVuSans-31"/>
      <use x="903.466797" xlink:href="#DejaVuSans-38"/>
     </g>
    </g>
    <g id="line2d_49">
     <path d="M 298.354585 64.772812 
L 318.354585 64.772812 
" style="fill:none;stroke:#2ca02c;stroke-dasharray:5.55,2.4;stroke-dashoffset:0;stroke-width:1.5;"/>
    </g>
    <g id="line2d_50">
     <g>
      <use style="fill:#2ca02c;stroke:#2ca02c;" x="308.354585" xlink:href="#m8782fbb15d" y="64.772812"/>
     </g>
    </g>
    <g id="text_10">
     <!-- gnu8.1.0 - mpt2.18 -->
     <g transform="translate(326.354585 68.272812)scale(0.1 -0.1)">
      <use xlink:href="#DejaVuSans-67"/>
      <use x="63.476562" xlink:href="#DejaVuSans-6e"/>
      <use x="126.855469" xlink:href="#DejaVuSans-75"/>
      <use x="190.234375" xlink:href="#DejaVuSans-38"/>
      <use x="253.857422" xlink:href="#DejaVuSans-2e"/>
      <use x="285.644531" xlink:href="#DejaVuSans-31"/>
      <use x="349.267578" xlink:href="#DejaVuSans-2e"/>
      <use x="381.054688" xlink:href="#DejaVuSans-30"/>
      <use x="444.677734" xlink:href="#DejaVuSans-20"/>
      <use x="476.464844" xlink:href="#DejaVuSans-2d"/>
      <use x="512.548828" xlink:href="#DejaVuSans-20"/>
      <use x="544.335938" xlink:href="#DejaVuSans-6d"/>
      <use x="641.748047" xlink:href="#DejaVuSans-70"/>
      <use x="705.224609" xlink:href="#DejaVuSans-74"/>
      <use x="744.433594" xlink:href="#DejaVuSans-32"/>
      <use x="808.056641" xlink:href="#DejaVuSans-2e"/>
      <use x="839.84375" xlink:href="#DejaVuSans-31"/>
      <use x="903.466797" xlink:href="#DejaVuSans-38"/>
     </g>
    </g>
    <g id="line2d_51">
     <path d="M 298.354585 79.450938 
L 318.354585 79.450938 
" style="fill:none;stroke:#d62728;stroke-dasharray:5.55,2.4;stroke-dashoffset:0;stroke-width:1.5;"/>
    </g>
    <g id="line2d_52">
     <g>
      <use style="fill:#d62728;stroke:#d62728;" x="308.354585" xlink:href="#m6d2282e1cd" y="79.450938"/>
     </g>
    </g>
    <g id="text_11">
     <!-- gnu8.1.0 - mvapich2.2 -->
     <defs>
      <path d="M 2.984375 54.6875 
L 12.5 54.6875 
L 29.59375 8.796875 
L 46.6875 54.6875 
L 56.203125 54.6875 
L 35.6875 0 
L 23.484375 0 
z
" id="DejaVuSans-76"/>
     </defs>
     <g transform="translate(326.354585 82.950938)scale(0.1 -0.1)">
      <use xlink:href="#DejaVuSans-67"/>
      <use x="63.476562" xlink:href="#DejaVuSans-6e"/>
      <use x="126.855469" xlink:href="#DejaVuSans-75"/>
      <use x="190.234375" xlink:href="#DejaVuSans-38"/>
      <use x="253.857422" xlink:href="#DejaVuSans-2e"/>
      <use x="285.644531" xlink:href="#DejaVuSans-31"/>
      <use x="349.267578" xlink:href="#DejaVuSans-2e"/>
      <use x="381.054688" xlink:href="#DejaVuSans-30"/>
      <use x="444.677734" xlink:href="#DejaVuSans-20"/>
      <use x="476.464844" xlink:href="#DejaVuSans-2d"/>
      <use x="512.548828" xlink:href="#DejaVuSans-20"/>
      <use x="544.335938" xlink:href="#DejaVuSans-6d"/>
      <use x="641.748047" xlink:href="#DejaVuSans-76"/>
      <use x="700.927734" xlink:href="#DejaVuSans-61"/>
      <use x="762.207031" xlink:href="#DejaVuSans-70"/>
      <use x="825.683594" xlink:href="#DejaVuSans-69"/>
      <use x="853.466797" xlink:href="#DejaVuSans-63"/>
      <use x="908.447266" xlink:href="#DejaVuSans-68"/>
      <use x="971.826172" xlink:href="#DejaVuSans-32"/>
      <use x="1035.449219" xlink:href="#DejaVuSans-2e"/>
      <use x="1067.236328" xlink:href="#DejaVuSans-32"/>
     </g>
    </g>
    <g id="line2d_53">
     <path d="M 298.354585 94.129063 
L 318.354585 94.129063 
" style="fill:none;stroke:#9467bd;stroke-dasharray:5.55,2.4;stroke-dashoffset:0;stroke-width:1.5;"/>
    </g>
    <g id="line2d_54">
     <g>
      <use style="fill:#9467bd;stroke:#9467bd;" x="308.354585" xlink:href="#m88e260166b" y="94.129063"/>
     </g>
    </g>
    <g id="text_12">
     <!-- gnu8.1.0 - openmpi3.1.0 -->
     <g transform="translate(326.354585 97.629063)scale(0.1 -0.1)">
      <use xlink:href="#DejaVuSans-67"/>
      <use x="63.476562" xlink:href="#DejaVuSans-6e"/>
      <use x="126.855469" xlink:href="#DejaVuSans-75"/>
      <use x="190.234375" xlink:href="#DejaVuSans-38"/>
      <use x="253.857422" xlink:href="#DejaVuSans-2e"/>
      <use x="285.644531" xlink:href="#DejaVuSans-31"/>
      <use x="349.267578" xlink:href="#DejaVuSans-2e"/>
      <use x="381.054688" xlink:href="#DejaVuSans-30"/>
      <use x="444.677734" xlink:href="#DejaVuSans-20"/>
      <use x="476.464844" xlink:href="#DejaVuSans-2d"/>
      <use x="512.548828" xlink:href="#DejaVuSans-20"/>
      <use x="544.335938" xlink:href="#DejaVuSans-6f"/>
      <use x="605.517578" xlink:href="#DejaVuSans-70"/>
      <use x="668.994141" xlink:href="#DejaVuSans-65"/>
      <use x="730.517578" xlink:href="#DejaVuSans-6e"/>
      <use x="793.896484" xlink:href="#DejaVuSans-6d"/>
      <use x="891.308594" xlink:href="#DejaVuSans-70"/>
      <use x="954.785156" xlink:href="#DejaVuSans-69"/>
      <use x="982.568359" xlink:href="#DejaVuSans-33"/>
      <use x="1046.191406" xlink:href="#DejaVuSans-2e"/>
      <use x="1077.978516" xlink:href="#DejaVuSans-31"/>
      <use x="1141.601562" xlink:href="#DejaVuSans-2e"/>
      <use x="1173.388672" xlink:href="#DejaVuSans-30"/>
     </g>
    </g>
    <g id="line2d_55">
     <path d="M 298.354585 108.807187 
L 318.354585 108.807187 
" style="fill:none;stroke:#8c564b;stroke-dasharray:5.55,2.4;stroke-dashoffset:0;stroke-width:1.5;"/>
    </g>
    <g id="line2d_56">
     <g>
      <use style="fill:#8c564b;stroke:#8c564b;" x="308.354585" xlink:href="#mdecca0fdec" y="108.807187"/>
     </g>
    </g>
    <g id="text_13">
     <!-- intel18.0.1 - mpt2.18 -->
     <g transform="translate(326.354585 112.307187)scale(0.1 -0.1)">
      <use xlink:href="#DejaVuSans-69"/>
      <use x="27.783203" xlink:href="#DejaVuSans-6e"/>
      <use x="91.162109" xlink:href="#DejaVuSans-74"/>
      <use x="130.371094" xlink:href="#DejaVuSans-65"/>
      <use x="191.894531" xlink:href="#DejaVuSans-6c"/>
      <use x="219.677734" xlink:href="#DejaVuSans-31"/>
      <use x="283.300781" xlink:href="#DejaVuSans-38"/>
      <use x="346.923828" xlink:href="#DejaVuSans-2e"/>
      <use x="378.710938" xlink:href="#DejaVuSans-30"/>
      <use x="442.333984" xlink:href="#DejaVuSans-2e"/>
      <use x="474.121094" xlink:href="#DejaVuSans-31"/>
      <use x="537.744141" xlink:href="#DejaVuSans-20"/>
      <use x="569.53125" xlink:href="#DejaVuSans-2d"/>
      <use x="605.615234" xlink:href="#DejaVuSans-20"/>
      <use x="637.402344" xlink:href="#DejaVuSans-6d"/>
      <use x="734.814453" xlink:href="#DejaVuSans-70"/>
      <use x="798.291016" xlink:href="#DejaVuSans-74"/>
      <use x="837.5" xlink:href="#DejaVuSans-32"/>
      <use x="901.123047" xlink:href="#DejaVuSans-2e"/>
      <use x="932.910156" xlink:href="#DejaVuSans-31"/>
      <use x="996.533203" xlink:href="#DejaVuSans-38"/>
     </g>
    </g>
    <g id="line2d_57">
     <path d="M 298.354585 123.485312 
L 318.354585 123.485312 
" style="fill:none;stroke:#e377c2;stroke-dasharray:5.55,2.4;stroke-dashoffset:0;stroke-width:1.5;"/>
    </g>
    <g id="line2d_58">
     <g>
      <use style="fill:#e377c2;stroke:#e377c2;" x="308.354585" xlink:href="#mee5c918ea8" y="123.485312"/>
     </g>
    </g>
    <g id="text_14">
     <!-- intel18.0.1  - openmpi3.1.0 -->
     <g transform="translate(326.354585 126.985312)scale(0.1 -0.1)">
      <use xlink:href="#DejaVuSans-69"/>
      <use x="27.783203" xlink:href="#DejaVuSans-6e"/>
      <use x="91.162109" xlink:href="#DejaVuSans-74"/>
      <use x="130.371094" xlink:href="#DejaVuSans-65"/>
      <use x="191.894531" xlink:href="#DejaVuSans-6c"/>
      <use x="219.677734" xlink:href="#DejaVuSans-31"/>
      <use x="283.300781" xlink:href="#DejaVuSans-38"/>
      <use x="346.923828" xlink:href="#DejaVuSans-2e"/>
      <use x="378.710938" xlink:href="#DejaVuSans-30"/>
      <use x="442.333984" xlink:href="#DejaVuSans-2e"/>
      <use x="474.121094" xlink:href="#DejaVuSans-31"/>
      <use x="537.744141" xlink:href="#DejaVuSans-20"/>
      <use x="569.53125" xlink:href="#DejaVuSans-20"/>
      <use x="601.318359" xlink:href="#DejaVuSans-2d"/>
      <use x="637.402344" xlink:href="#DejaVuSans-20"/>
      <use x="669.189453" xlink:href="#DejaVuSans-6f"/>
      <use x="730.371094" xlink:href="#DejaVuSans-70"/>
      <use x="793.847656" xlink:href="#DejaVuSans-65"/>
      <use x="855.371094" xlink:href="#DejaVuSans-6e"/>
      <use x="918.75" xlink:href="#DejaVuSans-6d"/>
      <use x="1016.162109" xlink:href="#DejaVuSans-70"/>
      <use x="1079.638672" xlink:href="#DejaVuSans-69"/>
      <use x="1107.421875" xlink:href="#DejaVuSans-33"/>
      <use x="1171.044922" xlink:href="#DejaVuSans-2e"/>
      <use x="1202.832031" xlink:href="#DejaVuSans-31"/>
      <use x="1266.455078" xlink:href="#DejaVuSans-2e"/>
      <use x="1298.242188" xlink:href="#DejaVuSans-30"/>
     </g>
    </g>
    <g id="line2d_59">
     <path d="M 298.354585 138.163437 
L 318.354585 138.163437 
" style="fill:none;stroke:#7f7f7f;stroke-dasharray:5.55,2.4;stroke-dashoffset:0;stroke-width:1.5;"/>
    </g>
    <g id="line2d_60">
     <g>
      <use style="fill:#7f7f7f;stroke:#7f7f7f;" x="308.354585" xlink:href="#m9becdfcf8b" y="138.163437"/>
     </g>
    </g>
    <g id="text_15">
     <!-- intel18.0.1  - impi2018.1.163 -->
     <g transform="translate(326.354585 141.663437)scale(0.1 -0.1)">
      <use xlink:href="#DejaVuSans-69"/>
      <use x="27.783203" xlink:href="#DejaVuSans-6e"/>
      <use x="91.162109" xlink:href="#DejaVuSans-74"/>
      <use x="130.371094" xlink:href="#DejaVuSans-65"/>
      <use x="191.894531" xlink:href="#DejaVuSans-6c"/>
      <use x="219.677734" xlink:href="#DejaVuSans-31"/>
      <use x="283.300781" xlink:href="#DejaVuSans-38"/>
      <use x="346.923828" xlink:href="#DejaVuSans-2e"/>
      <use x="378.710938" xlink:href="#DejaVuSans-30"/>
      <use x="442.333984" xlink:href="#DejaVuSans-2e"/>
      <use x="474.121094" xlink:href="#DejaVuSans-31"/>
      <use x="537.744141" xlink:href="#DejaVuSans-20"/>
      <use x="569.53125" xlink:href="#DejaVuSans-20"/>
      <use x="601.318359" xlink:href="#DejaVuSans-2d"/>
      <use x="637.402344" xlink:href="#DejaVuSans-20"/>
      <use x="669.189453" xlink:href="#DejaVuSans-69"/>
      <use x="696.972656" xlink:href="#DejaVuSans-6d"/>
      <use x="794.384766" xlink:href="#DejaVuSans-70"/>
      <use x="857.861328" xlink:href="#DejaVuSans-69"/>
      <use x="885.644531" xlink:href="#DejaVuSans-32"/>
      <use x="949.267578" xlink:href="#DejaVuSans-30"/>
      <use x="1012.890625" xlink:href="#DejaVuSans-31"/>
      <use x="1076.513672" xlink:href="#DejaVuSans-38"/>
      <use x="1140.136719" xlink:href="#DejaVuSans-2e"/>
      <use x="1171.923828" xlink:href="#DejaVuSans-31"/>
      <use x="1235.546875" xlink:href="#DejaVuSans-2e"/>
      <use x="1267.333984" xlink:href="#DejaVuSans-31"/>
      <use x="1330.957031" xlink:href="#DejaVuSans-36"/>
      <use x="1394.580078" xlink:href="#DejaVuSans-33"/>
     </g>
    </g>
   </g>
  </g>
 </g>
 <defs>
  <clipPath id="p544929616f">
   <rect height="217.44" width="199.911981" x="65.404009" y="22.318125"/>
  </clipPath>
 </defs>
</svg>
