<?xml version="1.0" encoding="utf-8" standalone="no"?>
<!DOCTYPE svg PUBLIC "-//W3C//DTD SVG 1.1//EN"
  "http://www.w3.org/Graphics/SVG/1.1/DTD/svg11.dtd">
<!-- Created with matplotlib (http://matplotlib.org/) -->
<svg height="250.2125pt" version="1.1" viewBox="0 0 485.779219 250.2125" width="485.779219pt" xmlns="http://www.w3.org/2000/svg" xmlns:xlink="http://www.w3.org/1999/xlink">
 <defs>
  <style type="text/css">
*{stroke-linecap:butt;stroke-linejoin:round;}
  </style>
 </defs>
 <g id="figure_1">
  <g id="patch_1">
   <path d="M 0 250.2125 
L 485.779219 250.2125 
L 485.779219 0 
L 0 0 
z
" style="fill:none;"/>
  </g>
  <g id="axes_1">
   <g id="patch_2">
    <path d="M 65.803125 212.578125 
L 261.103125 212.578125 
L 261.103125 22.318125 
L 65.803125 22.318125 
z
" style="fill:#ffffff;"/>
   </g>
   <g id="matplotlib.axis_1">
    <g id="xtick_1">
     <g id="line2d_1">
      <defs>
       <path d="M 0 0 
L 0 3.5 
" id="md582aa1555" style="stroke:#000000;stroke-width:0.8;"/>
      </defs>
      <g>
       <use style="stroke:#000000;stroke-width:0.8;" x="171.246108" xlink:href="#md582aa1555" y="212.578125"/>
      </g>
     </g>
     <g id="text_1">
      <!-- $\mathdefault{10^{3}}$ -->
      <defs>
       <path d="M 12.40625 8.296875 
L 28.515625 8.296875 
L 28.515625 63.921875 
L 10.984375 60.40625 
L 10.984375 69.390625 
L 28.421875 72.90625 
L 38.28125 72.90625 
L 38.28125 8.296875 
L 54.390625 8.296875 
L 54.390625 0 
L 12.40625 0 
z
" id="DejaVuSans-31"/>
       <path d="M 31.78125 66.40625 
Q 24.171875 66.40625 20.328125 58.90625 
Q 16.5 51.421875 16.5 36.375 
Q 16.5 21.390625 20.328125 13.890625 
Q 24.171875 6.390625 31.78125 6.390625 
Q 39.453125 6.390625 43.28125 13.890625 
Q 47.125 21.390625 47.125 36.375 
Q 47.125 51.421875 43.28125 58.90625 
Q 39.453125 66.40625 31.78125 66.40625 
z
M 31.78125 74.21875 
Q 44.046875 74.21875 50.515625 64.515625 
Q 56.984375 54.828125 56.984375 36.375 
Q 56.984375 17.96875 50.515625 8.265625 
Q 44.046875 -1.421875 31.78125 -1.421875 
Q 19.53125 -1.421875 13.0625 8.265625 
Q 6.59375 17.96875 6.59375 36.375 
Q 6.59375 54.828125 13.0625 64.515625 
Q 19.53125 74.21875 31.78125 74.21875 
z
" id="DejaVuSans-30"/>
       <path d="M 40.578125 39.3125 
Q 47.65625 37.796875 51.625 33 
Q 55.609375 28.21875 55.609375 21.1875 
Q 55.609375 10.40625 48.1875 4.484375 
Q 40.765625 -1.421875 27.09375 -1.421875 
Q 22.515625 -1.421875 17.65625 -0.515625 
Q 12.796875 0.390625 7.625 2.203125 
L 7.625 11.71875 
Q 11.71875 9.328125 16.59375 8.109375 
Q 21.484375 6.890625 26.8125 6.890625 
Q 36.078125 6.890625 40.9375 10.546875 
Q 45.796875 14.203125 45.796875 21.1875 
Q 45.796875 27.640625 41.28125 31.265625 
Q 36.765625 34.90625 28.71875 34.90625 
L 20.21875 34.90625 
L 20.21875 43.015625 
L 29.109375 43.015625 
Q 36.375 43.015625 40.234375 45.921875 
Q 44.09375 48.828125 44.09375 54.296875 
Q 44.09375 59.90625 40.109375 62.90625 
Q 36.140625 65.921875 28.71875 65.921875 
Q 24.65625 65.921875 20.015625 65.03125 
Q 15.375 64.15625 9.8125 62.3125 
L 9.8125 71.09375 
Q 15.4375 72.65625 20.34375 73.4375 
Q 25.25 74.21875 29.59375 74.21875 
Q 40.828125 74.21875 47.359375 69.109375 
Q 53.90625 64.015625 53.90625 55.328125 
Q 53.90625 49.265625 50.4375 45.09375 
Q 46.96875 40.921875 40.578125 39.3125 
z
" id="DejaVuSans-33"/>
      </defs>
      <g transform="translate(162.446108 227.176562)scale(0.1 -0.1)">
       <use transform="translate(0 0.765625)" xlink:href="#DejaVuSans-31"/>
       <use transform="translate(63.623047 0.765625)" xlink:href="#DejaVuSans-30"/>
       <use transform="translate(128.203125 39.046875)scale(0.7)" xlink:href="#DejaVuSans-33"/>
      </g>
     </g>
    </g>
    <g id="xtick_2">
     <g id="line2d_2">
      <defs>
       <path d="M 0 0 
L 0 2 
" id="m6aad81366d" style="stroke:#000000;stroke-width:0.6;"/>
      </defs>
      <g>
       <use style="stroke:#000000;stroke-width:0.6;" x="68.184164" xlink:href="#m6aad81366d" y="212.578125"/>
      </g>
     </g>
    </g>
    <g id="xtick_3">
     <g id="line2d_3">
      <g>
       <use style="stroke:#000000;stroke-width:0.6;" x="94.148522" xlink:href="#m6aad81366d" y="212.578125"/>
      </g>
     </g>
    </g>
    <g id="xtick_4">
     <g id="line2d_4">
      <g>
       <use style="stroke:#000000;stroke-width:0.6;" x="112.570527" xlink:href="#m6aad81366d" y="212.578125"/>
      </g>
     </g>
    </g>
    <g id="xtick_5">
     <g id="line2d_5">
      <g>
       <use style="stroke:#000000;stroke-width:0.6;" x="126.859745" xlink:href="#m6aad81366d" y="212.578125"/>
      </g>
     </g>
    </g>
    <g id="xtick_6">
     <g id="line2d_6">
      <g>
       <use style="stroke:#000000;stroke-width:0.6;" x="138.534885" xlink:href="#m6aad81366d" y="212.578125"/>
      </g>
     </g>
    </g>
    <g id="xtick_7">
     <g id="line2d_7">
      <g>
       <use style="stroke:#000000;stroke-width:0.6;" x="148.406076" xlink:href="#m6aad81366d" y="212.578125"/>
      </g>
     </g>
    </g>
    <g id="xtick_8">
     <g id="line2d_8">
      <g>
       <use style="stroke:#000000;stroke-width:0.6;" x="156.956891" xlink:href="#m6aad81366d" y="212.578125"/>
      </g>
     </g>
    </g>
    <g id="xtick_9">
     <g id="line2d_9">
      <g>
       <use style="stroke:#000000;stroke-width:0.6;" x="164.499244" xlink:href="#m6aad81366d" y="212.578125"/>
      </g>
     </g>
    </g>
    <g id="xtick_10">
     <g id="line2d_10">
      <g>
       <use style="stroke:#000000;stroke-width:0.6;" x="215.632472" xlink:href="#m6aad81366d" y="212.578125"/>
      </g>
     </g>
    </g>
    <g id="xtick_11">
     <g id="line2d_11">
      <g>
       <use style="stroke:#000000;stroke-width:0.6;" x="241.59683" xlink:href="#m6aad81366d" y="212.578125"/>
      </g>
     </g>
    </g>
    <g id="xtick_12">
     <g id="line2d_12">
      <g>
       <use style="stroke:#000000;stroke-width:0.6;" x="260.018836" xlink:href="#m6aad81366d" y="212.578125"/>
      </g>
     </g>
    </g>
    <g id="text_2">
     <!-- Total grid points / core -->
     <defs>
      <path d="M 0.484375 72.90625 
L 67.671875 72.90625 
L 67.671875 58.6875 
L 43.5 58.6875 
L 43.5 0 
L 24.703125 0 
L 24.703125 58.6875 
L 0.484375 58.6875 
z
" id="DejaVuSans-Bold-54"/>
      <path d="M 34.421875 43.5 
Q 28.609375 43.5 25.5625 39.328125 
Q 22.515625 35.15625 22.515625 27.296875 
Q 22.515625 19.4375 25.5625 15.25 
Q 28.609375 11.078125 34.421875 11.078125 
Q 40.140625 11.078125 43.15625 15.25 
Q 46.1875 19.4375 46.1875 27.296875 
Q 46.1875 35.15625 43.15625 39.328125 
Q 40.140625 43.5 34.421875 43.5 
z
M 34.421875 56 
Q 48.53125 56 56.46875 48.375 
Q 64.40625 40.765625 64.40625 27.296875 
Q 64.40625 13.8125 56.46875 6.1875 
Q 48.53125 -1.421875 34.421875 -1.421875 
Q 20.265625 -1.421875 12.28125 6.1875 
Q 4.296875 13.8125 4.296875 27.296875 
Q 4.296875 40.765625 12.28125 48.375 
Q 20.265625 56 34.421875 56 
z
" id="DejaVuSans-Bold-6f"/>
      <path d="M 27.484375 70.21875 
L 27.484375 54.6875 
L 45.515625 54.6875 
L 45.515625 42.1875 
L 27.484375 42.1875 
L 27.484375 19 
Q 27.484375 15.1875 29 13.84375 
Q 30.515625 12.5 35.015625 12.5 
L 44 12.5 
L 44 0 
L 29 0 
Q 18.65625 0 14.328125 4.3125 
Q 10.015625 8.640625 10.015625 19 
L 10.015625 42.1875 
L 1.3125 42.1875 
L 1.3125 54.6875 
L 10.015625 54.6875 
L 10.015625 70.21875 
z
" id="DejaVuSans-Bold-74"/>
      <path d="M 32.90625 24.609375 
Q 27.4375 24.609375 24.671875 22.75 
Q 21.921875 20.90625 21.921875 17.28125 
Q 21.921875 13.96875 24.140625 12.078125 
Q 26.375 10.203125 30.328125 10.203125 
Q 35.25 10.203125 38.625 13.734375 
Q 42 17.28125 42 22.609375 
L 42 24.609375 
z
M 59.625 31.203125 
L 59.625 0 
L 42 0 
L 42 8.109375 
Q 38.484375 3.125 34.078125 0.84375 
Q 29.6875 -1.421875 23.390625 -1.421875 
Q 14.890625 -1.421875 9.59375 3.53125 
Q 4.296875 8.5 4.296875 16.40625 
Q 4.296875 26.03125 10.90625 30.515625 
Q 17.53125 35.015625 31.6875 35.015625 
L 42 35.015625 
L 42 36.375 
Q 42 40.53125 38.71875 42.453125 
Q 35.453125 44.390625 28.515625 44.390625 
Q 22.90625 44.390625 18.0625 43.265625 
Q 13.234375 42.140625 9.078125 39.890625 
L 9.078125 53.21875 
Q 14.703125 54.59375 20.359375 55.296875 
Q 26.03125 56 31.6875 56 
Q 46.484375 56 53.046875 50.171875 
Q 59.625 44.34375 59.625 31.203125 
z
" id="DejaVuSans-Bold-61"/>
      <path d="M 8.40625 75.984375 
L 25.875 75.984375 
L 25.875 0 
L 8.40625 0 
z
" id="DejaVuSans-Bold-6c"/>
      <path id="DejaVuSans-Bold-20"/>
      <path d="M 45.609375 9.28125 
Q 42 4.5 37.640625 2.25 
Q 33.296875 0 27.59375 0 
Q 17.578125 0 11.03125 7.875 
Q 4.5 15.765625 4.5 27.984375 
Q 4.5 40.234375 11.03125 48.0625 
Q 17.578125 55.90625 27.59375 55.90625 
Q 33.296875 55.90625 37.640625 53.65625 
Q 42 51.421875 45.609375 46.578125 
L 45.609375 54.6875 
L 63.1875 54.6875 
L 63.1875 5.515625 
Q 63.1875 -7.671875 54.859375 -14.625 
Q 46.53125 -21.578125 30.71875 -21.578125 
Q 25.59375 -21.578125 20.796875 -20.796875 
Q 16.015625 -20.015625 11.1875 -18.40625 
L 11.1875 -4.78125 
Q 15.765625 -7.421875 20.15625 -8.71875 
Q 24.5625 -10.015625 29 -10.015625 
Q 37.59375 -10.015625 41.59375 -6.25 
Q 45.609375 -2.484375 45.609375 5.515625 
z
M 34.078125 43.3125 
Q 28.65625 43.3125 25.625 39.296875 
Q 22.609375 35.296875 22.609375 27.984375 
Q 22.609375 20.453125 25.53125 16.578125 
Q 28.46875 12.703125 34.078125 12.703125 
Q 39.546875 12.703125 42.578125 16.703125 
Q 45.609375 20.703125 45.609375 27.984375 
Q 45.609375 35.296875 42.578125 39.296875 
Q 39.546875 43.3125 34.078125 43.3125 
z
" id="DejaVuSans-Bold-67"/>
      <path d="M 49.03125 39.796875 
Q 46.734375 40.875 44.453125 41.375 
Q 42.1875 41.890625 39.890625 41.890625 
Q 33.15625 41.890625 29.515625 37.5625 
Q 25.875 33.25 25.875 25.203125 
L 25.875 0 
L 8.40625 0 
L 8.40625 54.6875 
L 25.875 54.6875 
L 25.875 45.703125 
Q 29.25 51.078125 33.609375 53.53125 
Q 37.984375 56 44.09375 56 
Q 44.96875 56 45.984375 55.921875 
Q 47.015625 55.859375 48.96875 55.609375 
z
" id="DejaVuSans-Bold-72"/>
      <path d="M 8.40625 54.6875 
L 25.875 54.6875 
L 25.875 0 
L 8.40625 0 
z
M 8.40625 75.984375 
L 25.875 75.984375 
L 25.875 61.71875 
L 8.40625 61.71875 
z
" id="DejaVuSans-Bold-69"/>
      <path d="M 45.609375 46.6875 
L 45.609375 75.984375 
L 63.1875 75.984375 
L 63.1875 0 
L 45.609375 0 
L 45.609375 7.90625 
Q 42 3.078125 37.640625 0.828125 
Q 33.296875 -1.421875 27.59375 -1.421875 
Q 17.484375 -1.421875 10.984375 6.609375 
Q 4.5 14.65625 4.5 27.296875 
Q 4.5 39.9375 10.984375 47.96875 
Q 17.484375 56 27.59375 56 
Q 33.25 56 37.625 53.734375 
Q 42 51.46875 45.609375 46.6875 
z
M 34.078125 11.28125 
Q 39.703125 11.28125 42.65625 15.375 
Q 45.609375 19.484375 45.609375 27.296875 
Q 45.609375 35.109375 42.65625 39.203125 
Q 39.703125 43.3125 34.078125 43.3125 
Q 28.515625 43.3125 25.5625 39.203125 
Q 22.609375 35.109375 22.609375 27.296875 
Q 22.609375 19.484375 25.5625 15.375 
Q 28.515625 11.28125 34.078125 11.28125 
z
" id="DejaVuSans-Bold-64"/>
      <path d="M 25.875 7.90625 
L 25.875 -20.796875 
L 8.40625 -20.796875 
L 8.40625 54.6875 
L 25.875 54.6875 
L 25.875 46.6875 
Q 29.5 51.46875 33.890625 53.734375 
Q 38.28125 56 44 56 
Q 54.109375 56 60.59375 47.96875 
Q 67.09375 39.9375 67.09375 27.296875 
Q 67.09375 14.65625 60.59375 6.609375 
Q 54.109375 -1.421875 44 -1.421875 
Q 38.28125 -1.421875 33.890625 0.84375 
Q 29.5 3.125 25.875 7.90625 
z
M 37.5 43.3125 
Q 31.890625 43.3125 28.875 39.1875 
Q 25.875 35.0625 25.875 27.296875 
Q 25.875 19.53125 28.875 15.40625 
Q 31.890625 11.28125 37.5 11.28125 
Q 43.109375 11.28125 46.0625 15.375 
Q 49.03125 19.484375 49.03125 27.296875 
Q 49.03125 35.109375 46.0625 39.203125 
Q 43.109375 43.3125 37.5 43.3125 
z
" id="DejaVuSans-Bold-70"/>
      <path d="M 63.375 33.296875 
L 63.375 0 
L 45.796875 0 
L 45.796875 5.421875 
L 45.796875 25.484375 
Q 45.796875 32.5625 45.484375 35.25 
Q 45.171875 37.9375 44.390625 39.203125 
Q 43.359375 40.921875 41.59375 41.875 
Q 39.84375 42.828125 37.59375 42.828125 
Q 32.125 42.828125 29 38.59375 
Q 25.875 34.375 25.875 26.90625 
L 25.875 0 
L 8.40625 0 
L 8.40625 54.6875 
L 25.875 54.6875 
L 25.875 46.6875 
Q 29.828125 51.46875 34.265625 53.734375 
Q 38.71875 56 44.09375 56 
Q 53.5625 56 58.46875 50.1875 
Q 63.375 44.390625 63.375 33.296875 
z
" id="DejaVuSans-Bold-6e"/>
      <path d="M 51.125 52.984375 
L 51.125 39.703125 
Q 45.515625 42.046875 40.28125 43.21875 
Q 35.0625 44.390625 30.421875 44.390625 
Q 25.4375 44.390625 23.015625 43.140625 
Q 20.609375 41.890625 20.609375 39.3125 
Q 20.609375 37.203125 22.4375 36.078125 
Q 24.265625 34.96875 29 34.421875 
L 32.078125 33.984375 
Q 45.515625 32.28125 50.140625 28.375 
Q 54.78125 24.46875 54.78125 16.109375 
Q 54.78125 7.375 48.328125 2.96875 
Q 41.890625 -1.421875 29.109375 -1.421875 
Q 23.6875 -1.421875 17.890625 -0.5625 
Q 12.109375 0.296875 6 2 
L 6 15.28125 
Q 11.234375 12.75 16.71875 11.46875 
Q 22.21875 10.203125 27.875 10.203125 
Q 33.015625 10.203125 35.59375 11.609375 
Q 38.1875 13.03125 38.1875 15.828125 
Q 38.1875 18.171875 36.40625 19.3125 
Q 34.625 20.453125 29.296875 21.09375 
L 26.21875 21.484375 
Q 14.546875 22.953125 9.859375 26.90625 
Q 5.171875 30.859375 5.171875 38.921875 
Q 5.171875 47.609375 11.125 51.796875 
Q 17.09375 56 29.390625 56 
Q 34.234375 56 39.546875 55.265625 
Q 44.875 54.546875 51.125 52.984375 
z
" id="DejaVuSans-Bold-73"/>
      <path d="M 25.6875 72.90625 
L 36.53125 72.90625 
L 10.796875 -9.28125 
L 0 -9.28125 
z
" id="DejaVuSans-Bold-2f"/>
      <path d="M 52.59375 52.984375 
L 52.59375 38.71875 
Q 49.03125 41.15625 45.4375 42.328125 
Q 41.84375 43.5 37.984375 43.5 
Q 30.671875 43.5 26.59375 39.234375 
Q 22.515625 34.96875 22.515625 27.296875 
Q 22.515625 19.625 26.59375 15.34375 
Q 30.671875 11.078125 37.984375 11.078125 
Q 42.09375 11.078125 45.78125 12.296875 
Q 49.46875 13.53125 52.59375 15.921875 
L 52.59375 1.609375 
Q 48.484375 0.09375 44.265625 -0.65625 
Q 40.046875 -1.421875 35.796875 -1.421875 
Q 21 -1.421875 12.640625 6.171875 
Q 4.296875 13.765625 4.296875 27.296875 
Q 4.296875 40.828125 12.640625 48.40625 
Q 21 56 35.796875 56 
Q 40.09375 56 44.265625 55.25 
Q 48.4375 54.5 52.59375 52.984375 
z
" id="DejaVuSans-Bold-63"/>
      <path d="M 62.984375 27.484375 
L 62.984375 22.515625 
L 22.125 22.515625 
Q 22.75 16.359375 26.5625 13.28125 
Q 30.375 10.203125 37.203125 10.203125 
Q 42.71875 10.203125 48.5 11.84375 
Q 54.296875 13.484375 60.40625 16.796875 
L 60.40625 3.328125 
Q 54.203125 0.984375 48 -0.21875 
Q 41.796875 -1.421875 35.59375 -1.421875 
Q 20.75 -1.421875 12.515625 6.125 
Q 4.296875 13.671875 4.296875 27.296875 
Q 4.296875 40.671875 12.375 48.328125 
Q 20.453125 56 34.625 56 
Q 47.515625 56 55.25 48.234375 
Q 62.984375 40.484375 62.984375 27.484375 
z
M 45.015625 33.296875 
Q 45.015625 38.28125 42.109375 41.328125 
Q 39.203125 44.390625 34.515625 44.390625 
Q 29.4375 44.390625 26.265625 41.53125 
Q 23.09375 38.671875 22.3125 33.296875 
z
" id="DejaVuSans-Bold-65"/>
     </defs>
     <g transform="translate(99.103125 240.854687)scale(0.1 -0.1)">
      <use xlink:href="#DejaVuSans-Bold-54"/>
      <use x="68.009766" xlink:href="#DejaVuSans-Bold-6f"/>
      <use x="136.710938" xlink:href="#DejaVuSans-Bold-74"/>
      <use x="184.513672" xlink:href="#DejaVuSans-Bold-61"/>
      <use x="251.994141" xlink:href="#DejaVuSans-Bold-6c"/>
      <use x="286.271484" xlink:href="#DejaVuSans-Bold-20"/>
      <use x="321.085938" xlink:href="#DejaVuSans-Bold-67"/>
      <use x="392.667969" xlink:href="#DejaVuSans-Bold-72"/>
      <use x="441.984375" xlink:href="#DejaVuSans-Bold-69"/>
      <use x="476.261719" xlink:href="#DejaVuSans-Bold-64"/>
      <use x="547.84375" xlink:href="#DejaVuSans-Bold-20"/>
      <use x="582.658203" xlink:href="#DejaVuSans-Bold-70"/>
      <use x="654.240234" xlink:href="#DejaVuSans-Bold-6f"/>
      <use x="722.941406" xlink:href="#DejaVuSans-Bold-69"/>
      <use x="757.21875" xlink:href="#DejaVuSans-Bold-6e"/>
      <use x="828.410156" xlink:href="#DejaVuSans-Bold-74"/>
      <use x="876.212891" xlink:href="#DejaVuSans-Bold-73"/>
      <use x="935.734375" xlink:href="#DejaVuSans-Bold-20"/>
      <use x="970.548828" xlink:href="#DejaVuSans-Bold-2f"/>
      <use x="1007.072266" xlink:href="#DejaVuSans-Bold-20"/>
      <use x="1041.886719" xlink:href="#DejaVuSans-Bold-63"/>
      <use x="1101.164062" xlink:href="#DejaVuSans-Bold-6f"/>
      <use x="1169.865234" xlink:href="#DejaVuSans-Bold-72"/>
      <use x="1219.181641" xlink:href="#DejaVuSans-Bold-65"/>
     </g>
    </g>
   </g>
   <g id="matplotlib.axis_2">
    <g id="ytick_1">
     <g id="line2d_13">
      <defs>
       <path d="M 0 0 
L -3.5 0 
" id="mca84cfd4d4" style="stroke:#000000;stroke-width:0.8;"/>
      </defs>
      <g>
       <use style="stroke:#000000;stroke-width:0.8;" x="65.803125" xlink:href="#mca84cfd4d4" y="192.439091"/>
      </g>
     </g>
     <g id="text_3">
      <!-- $\mathdefault{10^{0}}$ -->
      <g transform="translate(41.203125 196.23831)scale(0.1 -0.1)">
       <use transform="translate(0 0.765625)" xlink:href="#DejaVuSans-31"/>
       <use transform="translate(63.623047 0.765625)" xlink:href="#DejaVuSans-30"/>
       <use transform="translate(128.203125 39.046875)scale(0.7)" xlink:href="#DejaVuSans-30"/>
      </g>
     </g>
    </g>
    <g id="ytick_2">
     <g id="line2d_14">
      <g>
       <use style="stroke:#000000;stroke-width:0.8;" x="65.803125" xlink:href="#mca84cfd4d4" y="64.094181"/>
      </g>
     </g>
     <g id="text_4">
      <!-- $\mathdefault{10^{1}}$ -->
      <g transform="translate(41.203125 67.8934)scale(0.1 -0.1)">
       <use transform="translate(0 0.684375)" xlink:href="#DejaVuSans-31"/>
       <use transform="translate(63.623047 0.684375)" xlink:href="#DejaVuSans-30"/>
       <use transform="translate(128.203125 38.965625)scale(0.7)" xlink:href="#DejaVuSans-31"/>
      </g>
     </g>
    </g>
    <g id="ytick_3">
     <g id="line2d_15">
      <defs>
       <path d="M 0 0 
L -2 0 
" id="m529dd2f8ea" style="stroke:#000000;stroke-width:0.6;"/>
      </defs>
      <g>
       <use style="stroke:#000000;stroke-width:0.6;" x="65.803125" xlink:href="#m529dd2f8ea" y="212.319969"/>
      </g>
     </g>
    </g>
    <g id="ytick_4">
     <g id="line2d_16">
      <g>
       <use style="stroke:#000000;stroke-width:0.6;" x="65.803125" xlink:href="#m529dd2f8ea" y="204.876998"/>
      </g>
     </g>
    </g>
    <g id="ytick_5">
     <g id="line2d_17">
      <g>
       <use style="stroke:#000000;stroke-width:0.6;" x="65.803125" xlink:href="#m529dd2f8ea" y="198.311832"/>
      </g>
     </g>
    </g>
    <g id="ytick_6">
     <g id="line2d_18">
      <g>
       <use style="stroke:#000000;stroke-width:0.6;" x="65.803125" xlink:href="#m529dd2f8ea" y="153.803423"/>
      </g>
     </g>
    </g>
    <g id="ytick_7">
     <g id="line2d_19">
      <g>
       <use style="stroke:#000000;stroke-width:0.6;" x="65.803125" xlink:href="#m529dd2f8ea" y="131.203007"/>
      </g>
     </g>
    </g>
    <g id="ytick_8">
     <g id="line2d_20">
      <g>
       <use style="stroke:#000000;stroke-width:0.6;" x="65.803125" xlink:href="#m529dd2f8ea" y="115.167756"/>
      </g>
     </g>
    </g>
    <g id="ytick_9">
     <g id="line2d_21">
      <g>
       <use style="stroke:#000000;stroke-width:0.6;" x="65.803125" xlink:href="#m529dd2f8ea" y="102.729849"/>
      </g>
     </g>
    </g>
    <g id="ytick_10">
     <g id="line2d_22">
      <g>
       <use style="stroke:#000000;stroke-width:0.6;" x="65.803125" xlink:href="#m529dd2f8ea" y="92.567339"/>
      </g>
     </g>
    </g>
    <g id="ytick_11">
     <g id="line2d_23">
      <g>
       <use style="stroke:#000000;stroke-width:0.6;" x="65.803125" xlink:href="#m529dd2f8ea" y="83.975059"/>
      </g>
     </g>
    </g>
    <g id="ytick_12">
     <g id="line2d_24">
      <g>
       <use style="stroke:#000000;stroke-width:0.6;" x="65.803125" xlink:href="#m529dd2f8ea" y="76.532088"/>
      </g>
     </g>
    </g>
    <g id="ytick_13">
     <g id="line2d_25">
      <g>
       <use style="stroke:#000000;stroke-width:0.6;" x="65.803125" xlink:href="#m529dd2f8ea" y="69.966922"/>
      </g>
     </g>
    </g>
    <g id="ytick_14">
     <g id="line2d_26">
      <g>
       <use style="stroke:#000000;stroke-width:0.6;" x="65.803125" xlink:href="#m529dd2f8ea" y="25.458514"/>
      </g>
     </g>
    </g>
    <g id="text_5">
     <!-- Time steps / s -->
     <defs>
      <path d="M 59.078125 45.609375 
Q 62.40625 50.6875 66.96875 53.34375 
Q 71.53125 56 77 56 
Q 86.421875 56 91.359375 50.1875 
Q 96.296875 44.390625 96.296875 33.296875 
L 96.296875 0 
L 78.71875 0 
L 78.71875 28.515625 
Q 78.765625 29.15625 78.78125 29.828125 
Q 78.8125 30.515625 78.8125 31.78125 
Q 78.8125 37.59375 77.09375 40.203125 
Q 75.390625 42.828125 71.578125 42.828125 
Q 66.609375 42.828125 63.890625 38.71875 
Q 61.1875 34.625 61.078125 26.859375 
L 61.078125 0 
L 43.5 0 
L 43.5 28.515625 
Q 43.5 37.59375 41.9375 40.203125 
Q 40.375 42.828125 36.375 42.828125 
Q 31.34375 42.828125 28.609375 38.703125 
Q 25.875 34.578125 25.875 26.90625 
L 25.875 0 
L 8.296875 0 
L 8.296875 54.6875 
L 25.875 54.6875 
L 25.875 46.6875 
Q 29.109375 51.3125 33.28125 53.65625 
Q 37.453125 56 42.484375 56 
Q 48.140625 56 52.484375 53.265625 
Q 56.84375 50.53125 59.078125 45.609375 
z
" id="DejaVuSans-Bold-6d"/>
     </defs>
     <g transform="translate(35.123437 156.510625)rotate(-90)scale(0.1 -0.1)">
      <use xlink:href="#DejaVuSans-Bold-54"/>
      <use x="68.212891" xlink:href="#DejaVuSans-Bold-69"/>
      <use x="102.490234" xlink:href="#DejaVuSans-Bold-6d"/>
      <use x="206.689453" xlink:href="#DejaVuSans-Bold-65"/>
      <use x="274.511719" xlink:href="#DejaVuSans-Bold-20"/>
      <use x="309.326172" xlink:href="#DejaVuSans-Bold-73"/>
      <use x="368.847656" xlink:href="#DejaVuSans-Bold-74"/>
      <use x="416.650391" xlink:href="#DejaVuSans-Bold-65"/>
      <use x="484.472656" xlink:href="#DejaVuSans-Bold-70"/>
      <use x="556.054688" xlink:href="#DejaVuSans-Bold-73"/>
      <use x="615.576172" xlink:href="#DejaVuSans-Bold-20"/>
      <use x="650.390625" xlink:href="#DejaVuSans-Bold-2f"/>
      <use x="686.914062" xlink:href="#DejaVuSans-Bold-20"/>
      <use x="721.728516" xlink:href="#DejaVuSans-Bold-73"/>
     </g>
    </g>
   </g>
   <g id="line2d_27">
    <path clip-path="url(#p2ac6fab24a)" d="M 74.680398 55.8957 
L 119.066761 90.708083 
L 163.453125 128.790182 
L 207.839489 164.637985 
L 252.225852 202.015448 
" style="fill:none;stroke:#1f77b4;stroke-dasharray:5.55,2.4;stroke-dashoffset:0;stroke-width:1.5;"/>
    <defs>
     <path d="M 0 3 
C 0.795609 3 1.55874 2.683901 2.12132 2.12132 
C 2.683901 1.55874 3 0.795609 3 0 
C 3 -0.795609 2.683901 -1.55874 2.12132 -2.12132 
C 1.55874 -2.683901 0.795609 -3 0 -3 
C -0.795609 -3 -1.55874 -2.683901 -2.12132 -2.12132 
C -2.683901 -1.55874 -3 -0.795609 -3 0 
C -3 0.795609 -2.683901 1.55874 -2.12132 2.12132 
C -1.55874 2.683901 -0.795609 3 0 3 
z
" id="mbcec0bb310" style="stroke:#1f77b4;"/>
    </defs>
    <g clip-path="url(#p2ac6fab24a)">
     <use style="fill:#1f77b4;stroke:#1f77b4;" x="74.680398" xlink:href="#mbcec0bb310" y="55.8957"/>
     <use style="fill:#1f77b4;stroke:#1f77b4;" x="119.066761" xlink:href="#mbcec0bb310" y="90.708083"/>
     <use style="fill:#1f77b4;stroke:#1f77b4;" x="163.453125" xlink:href="#mbcec0bb310" y="128.790182"/>
     <use style="fill:#1f77b4;stroke:#1f77b4;" x="207.839489" xlink:href="#mbcec0bb310" y="164.637985"/>
     <use style="fill:#1f77b4;stroke:#1f77b4;" x="252.225852" xlink:href="#mbcec0bb310" y="202.015448"/>
    </g>
   </g>
   <g id="line2d_28">
    <path clip-path="url(#p2ac6fab24a)" d="M 74.680398 57.266352 
L 119.066761 91.145503 
L 163.453125 128.823698 
L 207.839489 164.822262 
L 252.225852 202.438976 
" style="fill:none;stroke:#ff7f0e;stroke-dasharray:5.55,2.4;stroke-dashoffset:0;stroke-width:1.5;"/>
    <defs>
     <path d="M 0 3 
C 0.795609 3 1.55874 2.683901 2.12132 2.12132 
C 2.683901 1.55874 3 0.795609 3 0 
C 3 -0.795609 2.683901 -1.55874 2.12132 -2.12132 
C 1.55874 -2.683901 0.795609 -3 0 -3 
C -0.795609 -3 -1.55874 -2.683901 -2.12132 -2.12132 
C -2.683901 -1.55874 -3 -0.795609 -3 0 
C -3 0.795609 -2.683901 1.55874 -2.12132 2.12132 
C -1.55874 2.683901 -0.795609 3 0 3 
z
" id="mf318306be8" style="stroke:#ff7f0e;"/>
    </defs>
    <g clip-path="url(#p2ac6fab24a)">
     <use style="fill:#ff7f0e;stroke:#ff7f0e;" x="74.680398" xlink:href="#mf318306be8" y="57.266352"/>
     <use style="fill:#ff7f0e;stroke:#ff7f0e;" x="119.066761" xlink:href="#mf318306be8" y="91.145503"/>
     <use style="fill:#ff7f0e;stroke:#ff7f0e;" x="163.453125" xlink:href="#mf318306be8" y="128.823698"/>
     <use style="fill:#ff7f0e;stroke:#ff7f0e;" x="207.839489" xlink:href="#mf318306be8" y="164.822262"/>
     <use style="fill:#ff7f0e;stroke:#ff7f0e;" x="252.225852" xlink:href="#mf318306be8" y="202.438976"/>
    </g>
   </g>
   <g id="line2d_29">
    <path clip-path="url(#p2ac6fab24a)" d="M 74.680398 56.826752 
L 119.066761 90.711886 
L 163.453125 129.104128 
L 207.839489 164.727405 
L 252.225852 202.03225 
" style="fill:none;stroke:#2ca02c;stroke-dasharray:5.55,2.4;stroke-dashoffset:0;stroke-width:1.5;"/>
    <defs>
     <path d="M 0 3 
C 0.795609 3 1.55874 2.683901 2.12132 2.12132 
C 2.683901 1.55874 3 0.795609 3 0 
C 3 -0.795609 2.683901 -1.55874 2.12132 -2.12132 
C 1.55874 -2.683901 0.795609 -3 0 -3 
C -0.795609 -3 -1.55874 -2.683901 -2.12132 -2.12132 
C -2.683901 -1.55874 -3 -0.795609 -3 0 
C -3 0.795609 -2.683901 1.55874 -2.12132 2.12132 
C -1.55874 2.683901 -0.795609 3 0 3 
z
" id="m05eeb33be5" style="stroke:#2ca02c;"/>
    </defs>
    <g clip-path="url(#p2ac6fab24a)">
     <use style="fill:#2ca02c;stroke:#2ca02c;" x="74.680398" xlink:href="#m05eeb33be5" y="56.826752"/>
     <use style="fill:#2ca02c;stroke:#2ca02c;" x="119.066761" xlink:href="#m05eeb33be5" y="90.711886"/>
     <use style="fill:#2ca02c;stroke:#2ca02c;" x="163.453125" xlink:href="#m05eeb33be5" y="129.104128"/>
     <use style="fill:#2ca02c;stroke:#2ca02c;" x="207.839489" xlink:href="#m05eeb33be5" y="164.727405"/>
     <use style="fill:#2ca02c;stroke:#2ca02c;" x="252.225852" xlink:href="#m05eeb33be5" y="202.03225"/>
    </g>
   </g>
   <g id="line2d_30">
    <path clip-path="url(#p2ac6fab24a)" d="M 74.680398 59.391979 
L 119.066761 92.802398 
L 163.453125 130.490412 
L 207.839489 166.401985 
L 252.225852 203.929943 
" style="fill:none;stroke:#d62728;stroke-dasharray:5.55,2.4;stroke-dashoffset:0;stroke-width:1.5;"/>
    <defs>
     <path d="M 0 3 
C 0.795609 3 1.55874 2.683901 2.12132 2.12132 
C 2.683901 1.55874 3 0.795609 3 0 
C 3 -0.795609 2.683901 -1.55874 2.12132 -2.12132 
C 1.55874 -2.683901 0.795609 -3 0 -3 
C -0.795609 -3 -1.55874 -2.683901 -2.12132 -2.12132 
C -2.683901 -1.55874 -3 -0.795609 -3 0 
C -3 0.795609 -2.683901 1.55874 -2.12132 2.12132 
C -1.55874 2.683901 -0.795609 3 0 3 
z
" id="m7bff061891" style="stroke:#d62728;"/>
    </defs>
    <g clip-path="url(#p2ac6fab24a)">
     <use style="fill:#d62728;stroke:#d62728;" x="74.680398" xlink:href="#m7bff061891" y="59.391979"/>
     <use style="fill:#d62728;stroke:#d62728;" x="119.066761" xlink:href="#m7bff061891" y="92.802398"/>
     <use style="fill:#d62728;stroke:#d62728;" x="163.453125" xlink:href="#m7bff061891" y="130.490412"/>
     <use style="fill:#d62728;stroke:#d62728;" x="207.839489" xlink:href="#m7bff061891" y="166.401985"/>
     <use style="fill:#d62728;stroke:#d62728;" x="252.225852" xlink:href="#m7bff061891" y="203.929943"/>
    </g>
   </g>
   <g id="line2d_31">
    <path clip-path="url(#p2ac6fab24a)" d="M 74.680398 59.201225 
L 119.066761 92.683713 
L 163.453125 130.859431 
L 207.839489 166.200558 
L 252.225852 203.295861 
" style="fill:none;stroke:#9467bd;stroke-dasharray:5.55,2.4;stroke-dashoffset:0;stroke-width:1.5;"/>
    <defs>
     <path d="M 0 3 
C 0.795609 3 1.55874 2.683901 2.12132 2.12132 
C 2.683901 1.55874 3 0.795609 3 0 
C 3 -0.795609 2.683901 -1.55874 2.12132 -2.12132 
C 1.55874 -2.683901 0.795609 -3 0 -3 
C -0.795609 -3 -1.55874 -2.683901 -2.12132 -2.12132 
C -2.683901 -1.55874 -3 -0.795609 -3 0 
C -3 0.795609 -2.683901 1.55874 -2.12132 2.12132 
C -1.55874 2.683901 -0.795609 3 0 3 
z
" id="m1fd56ba2ca" style="stroke:#9467bd;"/>
    </defs>
    <g clip-path="url(#p2ac6fab24a)">
     <use style="fill:#9467bd;stroke:#9467bd;" x="74.680398" xlink:href="#m1fd56ba2ca" y="59.201225"/>
     <use style="fill:#9467bd;stroke:#9467bd;" x="119.066761" xlink:href="#m1fd56ba2ca" y="92.683713"/>
     <use style="fill:#9467bd;stroke:#9467bd;" x="163.453125" xlink:href="#m1fd56ba2ca" y="130.859431"/>
     <use style="fill:#9467bd;stroke:#9467bd;" x="207.839489" xlink:href="#m1fd56ba2ca" y="166.200558"/>
     <use style="fill:#9467bd;stroke:#9467bd;" x="252.225852" xlink:href="#m1fd56ba2ca" y="203.295861"/>
    </g>
   </g>
   <g id="line2d_32">
    <path clip-path="url(#p2ac6fab24a)" d="M 74.680398 56.275377 
L 119.066761 91.129719 
L 163.453125 129.80741 
L 207.839489 165.686985 
L 252.225852 202.612655 
" style="fill:none;stroke:#8c564b;stroke-dasharray:5.55,2.4;stroke-dashoffset:0;stroke-width:1.5;"/>
    <defs>
     <path d="M 0 3 
C 0.795609 3 1.55874 2.683901 2.12132 2.12132 
C 2.683901 1.55874 3 0.795609 3 0 
C 3 -0.795609 2.683901 -1.55874 2.12132 -2.12132 
C 1.55874 -2.683901 0.795609 -3 0 -3 
C -0.795609 -3 -1.55874 -2.683901 -2.12132 -2.12132 
C -2.683901 -1.55874 -3 -0.795609 -3 0 
C -3 0.795609 -2.683901 1.55874 -2.12132 2.12132 
C -1.55874 2.683901 -0.795609 3 0 3 
z
" id="m145a2ee5a2" style="stroke:#8c564b;"/>
    </defs>
    <g clip-path="url(#p2ac6fab24a)">
     <use style="fill:#8c564b;stroke:#8c564b;" x="74.680398" xlink:href="#m145a2ee5a2" y="56.275377"/>
     <use style="fill:#8c564b;stroke:#8c564b;" x="119.066761" xlink:href="#m145a2ee5a2" y="91.129719"/>
     <use style="fill:#8c564b;stroke:#8c564b;" x="163.453125" xlink:href="#m145a2ee5a2" y="129.80741"/>
     <use style="fill:#8c564b;stroke:#8c564b;" x="207.839489" xlink:href="#m145a2ee5a2" y="165.686985"/>
     <use style="fill:#8c564b;stroke:#8c564b;" x="252.225852" xlink:href="#m145a2ee5a2" y="202.612655"/>
    </g>
   </g>
   <g id="line2d_33">
    <path clip-path="url(#p2ac6fab24a)" d="M 74.680398 45.990623 
L 119.066761 79.92617 
L 163.453125 118.855812 
L 207.839489 156.354747 
L 252.225852 194.43674 
" style="fill:none;stroke:#e377c2;stroke-dasharray:5.55,2.4;stroke-dashoffset:0;stroke-width:1.5;"/>
    <defs>
     <path d="M 0 3 
C 0.795609 3 1.55874 2.683901 2.12132 2.12132 
C 2.683901 1.55874 3 0.795609 3 0 
C 3 -0.795609 2.683901 -1.55874 2.12132 -2.12132 
C 1.55874 -2.683901 0.795609 -3 0 -3 
C -0.795609 -3 -1.55874 -2.683901 -2.12132 -2.12132 
C -2.683901 -1.55874 -3 -0.795609 -3 0 
C -3 0.795609 -2.683901 1.55874 -2.12132 2.12132 
C -1.55874 2.683901 -0.795609 3 0 3 
z
" id="m7d5901eecd" style="stroke:#e377c2;"/>
    </defs>
    <g clip-path="url(#p2ac6fab24a)">
     <use style="fill:#e377c2;stroke:#e377c2;" x="74.680398" xlink:href="#m7d5901eecd" y="45.990623"/>
     <use style="fill:#e377c2;stroke:#e377c2;" x="119.066761" xlink:href="#m7d5901eecd" y="79.92617"/>
     <use style="fill:#e377c2;stroke:#e377c2;" x="163.453125" xlink:href="#m7d5901eecd" y="118.855812"/>
     <use style="fill:#e377c2;stroke:#e377c2;" x="207.839489" xlink:href="#m7d5901eecd" y="156.354747"/>
     <use style="fill:#e377c2;stroke:#e377c2;" x="252.225852" xlink:href="#m7d5901eecd" y="194.43674"/>
    </g>
   </g>
   <g id="line2d_34">
    <path clip-path="url(#p2ac6fab24a)" d="M 74.680398 46.987417 
L 119.066761 80.795426 
L 163.453125 119.812916 
L 207.839489 156.935075 
L 252.225852 195.415024 
" style="fill:none;stroke:#7f7f7f;stroke-dasharray:5.55,2.4;stroke-dashoffset:0;stroke-width:1.5;"/>
    <defs>
     <path d="M 0 3 
C 0.795609 3 1.55874 2.683901 2.12132 2.12132 
C 2.683901 1.55874 3 0.795609 3 0 
C 3 -0.795609 2.683901 -1.55874 2.12132 -2.12132 
C 1.55874 -2.683901 0.795609 -3 0 -3 
C -0.795609 -3 -1.55874 -2.683901 -2.12132 -2.12132 
C -2.683901 -1.55874 -3 -0.795609 -3 0 
C -3 0.795609 -2.683901 1.55874 -2.12132 2.12132 
C -1.55874 2.683901 -0.795609 3 0 3 
z
" id="me4574e7bb1" style="stroke:#7f7f7f;"/>
    </defs>
    <g clip-path="url(#p2ac6fab24a)">
     <use style="fill:#7f7f7f;stroke:#7f7f7f;" x="74.680398" xlink:href="#me4574e7bb1" y="46.987417"/>
     <use style="fill:#7f7f7f;stroke:#7f7f7f;" x="119.066761" xlink:href="#me4574e7bb1" y="80.795426"/>
     <use style="fill:#7f7f7f;stroke:#7f7f7f;" x="163.453125" xlink:href="#me4574e7bb1" y="119.812916"/>
     <use style="fill:#7f7f7f;stroke:#7f7f7f;" x="207.839489" xlink:href="#me4574e7bb1" y="156.935075"/>
     <use style="fill:#7f7f7f;stroke:#7f7f7f;" x="252.225852" xlink:href="#me4574e7bb1" y="195.415024"/>
    </g>
   </g>
   <g id="line2d_35">
    <path clip-path="url(#p2ac6fab24a)" d="M 74.680398 35.561537 
L 119.066761 68.144479 
L 163.453125 106.540944 
L 207.839489 145.130002 
L 252.225852 184.17516 
" style="fill:none;stroke:#bcbd22;stroke-dasharray:5.55,2.4;stroke-dashoffset:0;stroke-width:1.5;"/>
    <defs>
     <path d="M 0 3 
C 0.795609 3 1.55874 2.683901 2.12132 2.12132 
C 2.683901 1.55874 3 0.795609 3 0 
C 3 -0.795609 2.683901 -1.55874 2.12132 -2.12132 
C 1.55874 -2.683901 0.795609 -3 0 -3 
C -0.795609 -3 -1.55874 -2.683901 -2.12132 -2.12132 
C -2.683901 -1.55874 -3 -0.795609 -3 0 
C -3 0.795609 -2.683901 1.55874 -2.12132 2.12132 
C -1.55874 2.683901 -0.795609 3 0 3 
z
" id="mdc3654ad9c" style="stroke:#bcbd22;"/>
    </defs>
    <g clip-path="url(#p2ac6fab24a)">
     <use style="fill:#bcbd22;stroke:#bcbd22;" x="74.680398" xlink:href="#mdc3654ad9c" y="35.561537"/>
     <use style="fill:#bcbd22;stroke:#bcbd22;" x="119.066761" xlink:href="#mdc3654ad9c" y="68.144479"/>
     <use style="fill:#bcbd22;stroke:#bcbd22;" x="163.453125" xlink:href="#mdc3654ad9c" y="106.540944"/>
     <use style="fill:#bcbd22;stroke:#bcbd22;" x="207.839489" xlink:href="#mdc3654ad9c" y="145.130002"/>
     <use style="fill:#bcbd22;stroke:#bcbd22;" x="252.225852" xlink:href="#mdc3654ad9c" y="184.17516"/>
    </g>
   </g>
   <g id="line2d_36">
    <path clip-path="url(#p2ac6fab24a)" d="M 74.680398 35.66931 
L 119.066761 68.759953 
L 163.453125 107.163168 
L 207.839489 145.851319 
L 252.225852 184.568956 
" style="fill:none;stroke:#17becf;stroke-dasharray:5.55,2.4;stroke-dashoffset:0;stroke-width:1.5;"/>
    <defs>
     <path d="M 0 3 
C 0.795609 3 1.55874 2.683901 2.12132 2.12132 
C 2.683901 1.55874 3 0.795609 3 0 
C 3 -0.795609 2.683901 -1.55874 2.12132 -2.12132 
C 1.55874 -2.683901 0.795609 -3 0 -3 
C -0.795609 -3 -1.55874 -2.683901 -2.12132 -2.12132 
C -2.683901 -1.55874 -3 -0.795609 -3 0 
C -3 0.795609 -2.683901 1.55874 -2.12132 2.12132 
C -1.55874 2.683901 -0.795609 3 0 3 
z
" id="m3d25453786" style="stroke:#17becf;"/>
    </defs>
    <g clip-path="url(#p2ac6fab24a)">
     <use style="fill:#17becf;stroke:#17becf;" x="74.680398" xlink:href="#m3d25453786" y="35.66931"/>
     <use style="fill:#17becf;stroke:#17becf;" x="119.066761" xlink:href="#m3d25453786" y="68.759953"/>
     <use style="fill:#17becf;stroke:#17becf;" x="163.453125" xlink:href="#m3d25453786" y="107.163168"/>
     <use style="fill:#17becf;stroke:#17becf;" x="207.839489" xlink:href="#m3d25453786" y="145.851319"/>
     <use style="fill:#17becf;stroke:#17becf;" x="252.225852" xlink:href="#m3d25453786" y="184.568956"/>
    </g>
   </g>
   <g id="line2d_37">
    <path clip-path="url(#p2ac6fab24a)" d="M 74.680398 34.236494 
L 119.066761 67.523706 
L 163.453125 105.719995 
L 207.839489 144.278745 
L 252.225852 183.321714 
" style="fill:none;stroke:#1f77b4;stroke-dasharray:5.55,2.4;stroke-dashoffset:0;stroke-width:1.5;"/>
    <g clip-path="url(#p2ac6fab24a)">
     <use style="fill:#1f77b4;stroke:#1f77b4;" x="74.680398" xlink:href="#mbcec0bb310" y="34.236494"/>
     <use style="fill:#1f77b4;stroke:#1f77b4;" x="119.066761" xlink:href="#mbcec0bb310" y="67.523706"/>
     <use style="fill:#1f77b4;stroke:#1f77b4;" x="163.453125" xlink:href="#mbcec0bb310" y="105.719995"/>
     <use style="fill:#1f77b4;stroke:#1f77b4;" x="207.839489" xlink:href="#mbcec0bb310" y="144.278745"/>
     <use style="fill:#1f77b4;stroke:#1f77b4;" x="252.225852" xlink:href="#mbcec0bb310" y="183.321714"/>
    </g>
   </g>
   <g id="line2d_38">
    <path clip-path="url(#p2ac6fab24a)" d="M 74.680398 30.966307 
L 119.066761 63.921121 
L 163.453125 102.887647 
L 207.839489 142.089037 
L 252.225852 180.753514 
" style="fill:none;stroke:#ff7f0e;stroke-dasharray:5.55,2.4;stroke-dashoffset:0;stroke-width:1.5;"/>
    <g clip-path="url(#p2ac6fab24a)">
     <use style="fill:#ff7f0e;stroke:#ff7f0e;" x="74.680398" xlink:href="#mf318306be8" y="30.966307"/>
     <use style="fill:#ff7f0e;stroke:#ff7f0e;" x="119.066761" xlink:href="#mf318306be8" y="63.921121"/>
     <use style="fill:#ff7f0e;stroke:#ff7f0e;" x="163.453125" xlink:href="#mf318306be8" y="102.887647"/>
     <use style="fill:#ff7f0e;stroke:#ff7f0e;" x="207.839489" xlink:href="#mf318306be8" y="142.089037"/>
     <use style="fill:#ff7f0e;stroke:#ff7f0e;" x="252.225852" xlink:href="#mf318306be8" y="180.753514"/>
    </g>
   </g>
   <g id="patch_3">
    <path d="M 65.803125 212.578125 
L 65.803125 22.318125 
" style="fill:none;stroke:#000000;stroke-linecap:square;stroke-linejoin:miter;stroke-width:0.8;"/>
   </g>
   <g id="patch_4">
    <path d="M 261.103125 212.578125 
L 261.103125 22.318125 
" style="fill:none;stroke:#000000;stroke-linecap:square;stroke-linejoin:miter;stroke-width:0.8;"/>
   </g>
   <g id="patch_5">
    <path d="M 65.803125 212.578125 
L 261.103125 212.578125 
" style="fill:none;stroke:#000000;stroke-linecap:square;stroke-linejoin:miter;stroke-width:0.8;"/>
   </g>
   <g id="patch_6">
    <path d="M 65.803125 22.318125 
L 261.103125 22.318125 
" style="fill:none;stroke:#000000;stroke-linecap:square;stroke-linejoin:miter;stroke-width:0.8;"/>
   </g>
   <g id="text_6">
    <!-- Scaling results for NEW CONUS 12km with WRFV4.0 -->
    <defs>
     <path d="M 53.515625 70.515625 
L 53.515625 60.890625 
Q 47.90625 63.578125 42.921875 64.890625 
Q 37.9375 66.21875 33.296875 66.21875 
Q 25.25 66.21875 20.875 63.09375 
Q 16.5 59.96875 16.5 54.203125 
Q 16.5 49.359375 19.40625 46.890625 
Q 22.3125 44.4375 30.421875 42.921875 
L 36.375 41.703125 
Q 47.40625 39.59375 52.65625 34.296875 
Q 57.90625 29 57.90625 20.125 
Q 57.90625 9.515625 50.796875 4.046875 
Q 43.703125 -1.421875 29.984375 -1.421875 
Q 24.8125 -1.421875 18.96875 -0.25 
Q 13.140625 0.921875 6.890625 3.21875 
L 6.890625 13.375 
Q 12.890625 10.015625 18.65625 8.296875 
Q 24.421875 6.59375 29.984375 6.59375 
Q 38.421875 6.59375 43.015625 9.90625 
Q 47.609375 13.234375 47.609375 19.390625 
Q 47.609375 24.75 44.3125 27.78125 
Q 41.015625 30.8125 33.5 32.328125 
L 27.484375 33.5 
Q 16.453125 35.6875 11.515625 40.375 
Q 6.59375 45.0625 6.59375 53.421875 
Q 6.59375 63.09375 13.40625 68.65625 
Q 20.21875 74.21875 32.171875 74.21875 
Q 37.3125 74.21875 42.625 73.28125 
Q 47.953125 72.359375 53.515625 70.515625 
z
" id="DejaVuSans-53"/>
     <path d="M 48.78125 52.59375 
L 48.78125 44.1875 
Q 44.96875 46.296875 41.140625 47.34375 
Q 37.3125 48.390625 33.40625 48.390625 
Q 24.65625 48.390625 19.8125 42.84375 
Q 14.984375 37.3125 14.984375 27.296875 
Q 14.984375 17.28125 19.8125 11.734375 
Q 24.65625 6.203125 33.40625 6.203125 
Q 37.3125 6.203125 41.140625 7.25 
Q 44.96875 8.296875 48.78125 10.40625 
L 48.78125 2.09375 
Q 45.015625 0.34375 40.984375 -0.53125 
Q 36.96875 -1.421875 32.421875 -1.421875 
Q 20.0625 -1.421875 12.78125 6.34375 
Q 5.515625 14.109375 5.515625 27.296875 
Q 5.515625 40.671875 12.859375 48.328125 
Q 20.21875 56 33.015625 56 
Q 37.15625 56 41.109375 55.140625 
Q 45.0625 54.296875 48.78125 52.59375 
z
" id="DejaVuSans-63"/>
     <path d="M 34.28125 27.484375 
Q 23.390625 27.484375 19.1875 25 
Q 14.984375 22.515625 14.984375 16.5 
Q 14.984375 11.71875 18.140625 8.90625 
Q 21.296875 6.109375 26.703125 6.109375 
Q 34.1875 6.109375 38.703125 11.40625 
Q 43.21875 16.703125 43.21875 25.484375 
L 43.21875 27.484375 
z
M 52.203125 31.203125 
L 52.203125 0 
L 43.21875 0 
L 43.21875 8.296875 
Q 40.140625 3.328125 35.546875 0.953125 
Q 30.953125 -1.421875 24.3125 -1.421875 
Q 15.921875 -1.421875 10.953125 3.296875 
Q 6 8.015625 6 15.921875 
Q 6 25.140625 12.171875 29.828125 
Q 18.359375 34.515625 30.609375 34.515625 
L 43.21875 34.515625 
L 43.21875 35.40625 
Q 43.21875 41.609375 39.140625 45 
Q 35.0625 48.390625 27.6875 48.390625 
Q 23 48.390625 18.546875 47.265625 
Q 14.109375 46.140625 10.015625 43.890625 
L 10.015625 52.203125 
Q 14.9375 54.109375 19.578125 55.046875 
Q 24.21875 56 28.609375 56 
Q 40.484375 56 46.34375 49.84375 
Q 52.203125 43.703125 52.203125 31.203125 
z
" id="DejaVuSans-61"/>
     <path d="M 9.421875 75.984375 
L 18.40625 75.984375 
L 18.40625 0 
L 9.421875 0 
z
" id="DejaVuSans-6c"/>
     <path d="M 9.421875 54.6875 
L 18.40625 54.6875 
L 18.40625 0 
L 9.421875 0 
z
M 9.421875 75.984375 
L 18.40625 75.984375 
L 18.40625 64.59375 
L 9.421875 64.59375 
z
" id="DejaVuSans-69"/>
     <path d="M 54.890625 33.015625 
L 54.890625 0 
L 45.90625 0 
L 45.90625 32.71875 
Q 45.90625 40.484375 42.875 44.328125 
Q 39.84375 48.1875 33.796875 48.1875 
Q 26.515625 48.1875 22.3125 43.546875 
Q 18.109375 38.921875 18.109375 30.90625 
L 18.109375 0 
L 9.078125 0 
L 9.078125 54.6875 
L 18.109375 54.6875 
L 18.109375 46.1875 
Q 21.34375 51.125 25.703125 53.5625 
Q 30.078125 56 35.796875 56 
Q 45.21875 56 50.046875 50.171875 
Q 54.890625 44.34375 54.890625 33.015625 
z
" id="DejaVuSans-6e"/>
     <path d="M 45.40625 27.984375 
Q 45.40625 37.75 41.375 43.109375 
Q 37.359375 48.484375 30.078125 48.484375 
Q 22.859375 48.484375 18.828125 43.109375 
Q 14.796875 37.75 14.796875 27.984375 
Q 14.796875 18.265625 18.828125 12.890625 
Q 22.859375 7.515625 30.078125 7.515625 
Q 37.359375 7.515625 41.375 12.890625 
Q 45.40625 18.265625 45.40625 27.984375 
z
M 54.390625 6.78125 
Q 54.390625 -7.171875 48.1875 -13.984375 
Q 42 -20.796875 29.203125 -20.796875 
Q 24.46875 -20.796875 20.265625 -20.09375 
Q 16.0625 -19.390625 12.109375 -17.921875 
L 12.109375 -9.1875 
Q 16.0625 -11.328125 19.921875 -12.34375 
Q 23.78125 -13.375 27.78125 -13.375 
Q 36.625 -13.375 41.015625 -8.765625 
Q 45.40625 -4.15625 45.40625 5.171875 
L 45.40625 9.625 
Q 42.625 4.78125 38.28125 2.390625 
Q 33.9375 0 27.875 0 
Q 17.828125 0 11.671875 7.65625 
Q 5.515625 15.328125 5.515625 27.984375 
Q 5.515625 40.671875 11.671875 48.328125 
Q 17.828125 56 27.875 56 
Q 33.9375 56 38.28125 53.609375 
Q 42.625 51.21875 45.40625 46.390625 
L 45.40625 54.6875 
L 54.390625 54.6875 
z
" id="DejaVuSans-67"/>
     <path id="DejaVuSans-20"/>
     <path d="M 41.109375 46.296875 
Q 39.59375 47.171875 37.8125 47.578125 
Q 36.03125 48 33.890625 48 
Q 26.265625 48 22.1875 43.046875 
Q 18.109375 38.09375 18.109375 28.8125 
L 18.109375 0 
L 9.078125 0 
L 9.078125 54.6875 
L 18.109375 54.6875 
L 18.109375 46.1875 
Q 20.953125 51.171875 25.484375 53.578125 
Q 30.03125 56 36.53125 56 
Q 37.453125 56 38.578125 55.875 
Q 39.703125 55.765625 41.0625 55.515625 
z
" id="DejaVuSans-72"/>
     <path d="M 56.203125 29.59375 
L 56.203125 25.203125 
L 14.890625 25.203125 
Q 15.484375 15.921875 20.484375 11.0625 
Q 25.484375 6.203125 34.421875 6.203125 
Q 39.59375 6.203125 44.453125 7.46875 
Q 49.3125 8.734375 54.109375 11.28125 
L 54.109375 2.78125 
Q 49.265625 0.734375 44.1875 -0.34375 
Q 39.109375 -1.421875 33.890625 -1.421875 
Q 20.796875 -1.421875 13.15625 6.1875 
Q 5.515625 13.8125 5.515625 26.8125 
Q 5.515625 40.234375 12.765625 48.109375 
Q 20.015625 56 32.328125 56 
Q 43.359375 56 49.78125 48.890625 
Q 56.203125 41.796875 56.203125 29.59375 
z
M 47.21875 32.234375 
Q 47.125 39.59375 43.09375 43.984375 
Q 39.0625 48.390625 32.421875 48.390625 
Q 24.90625 48.390625 20.390625 44.140625 
Q 15.875 39.890625 15.1875 32.171875 
z
" id="DejaVuSans-65"/>
     <path d="M 44.28125 53.078125 
L 44.28125 44.578125 
Q 40.484375 46.53125 36.375 47.5 
Q 32.28125 48.484375 27.875 48.484375 
Q 21.1875 48.484375 17.84375 46.4375 
Q 14.5 44.390625 14.5 40.28125 
Q 14.5 37.15625 16.890625 35.375 
Q 19.28125 33.59375 26.515625 31.984375 
L 29.59375 31.296875 
Q 39.15625 29.25 43.1875 25.515625 
Q 47.21875 21.78125 47.21875 15.09375 
Q 47.21875 7.46875 41.1875 3.015625 
Q 35.15625 -1.421875 24.609375 -1.421875 
Q 20.21875 -1.421875 15.453125 -0.5625 
Q 10.6875 0.296875 5.421875 2 
L 5.421875 11.28125 
Q 10.40625 8.6875 15.234375 7.390625 
Q 20.0625 6.109375 24.8125 6.109375 
Q 31.15625 6.109375 34.5625 8.28125 
Q 37.984375 10.453125 37.984375 14.40625 
Q 37.984375 18.0625 35.515625 20.015625 
Q 33.0625 21.96875 24.703125 23.78125 
L 21.578125 24.515625 
Q 13.234375 26.265625 9.515625 29.90625 
Q 5.8125 33.546875 5.8125 39.890625 
Q 5.8125 47.609375 11.28125 51.796875 
Q 16.75 56 26.8125 56 
Q 31.78125 56 36.171875 55.265625 
Q 40.578125 54.546875 44.28125 53.078125 
z
" id="DejaVuSans-73"/>
     <path d="M 8.5 21.578125 
L 8.5 54.6875 
L 17.484375 54.6875 
L 17.484375 21.921875 
Q 17.484375 14.15625 20.5 10.265625 
Q 23.53125 6.390625 29.59375 6.390625 
Q 36.859375 6.390625 41.078125 11.03125 
Q 45.3125 15.671875 45.3125 23.6875 
L 45.3125 54.6875 
L 54.296875 54.6875 
L 54.296875 0 
L 45.3125 0 
L 45.3125 8.40625 
Q 42.046875 3.421875 37.71875 1 
Q 33.40625 -1.421875 27.6875 -1.421875 
Q 18.265625 -1.421875 13.375 4.4375 
Q 8.5 10.296875 8.5 21.578125 
z
M 31.109375 56 
z
" id="DejaVuSans-75"/>
     <path d="M 18.3125 70.21875 
L 18.3125 54.6875 
L 36.8125 54.6875 
L 36.8125 47.703125 
L 18.3125 47.703125 
L 18.3125 18.015625 
Q 18.3125 11.328125 20.140625 9.421875 
Q 21.96875 7.515625 27.59375 7.515625 
L 36.8125 7.515625 
L 36.8125 0 
L 27.59375 0 
Q 17.1875 0 13.234375 3.875 
Q 9.28125 7.765625 9.28125 18.015625 
L 9.28125 47.703125 
L 2.6875 47.703125 
L 2.6875 54.6875 
L 9.28125 54.6875 
L 9.28125 70.21875 
z
" id="DejaVuSans-74"/>
     <path d="M 37.109375 75.984375 
L 37.109375 68.5 
L 28.515625 68.5 
Q 23.6875 68.5 21.796875 66.546875 
Q 19.921875 64.59375 19.921875 59.515625 
L 19.921875 54.6875 
L 34.71875 54.6875 
L 34.71875 47.703125 
L 19.921875 47.703125 
L 19.921875 0 
L 10.890625 0 
L 10.890625 47.703125 
L 2.296875 47.703125 
L 2.296875 54.6875 
L 10.890625 54.6875 
L 10.890625 58.5 
Q 10.890625 67.625 15.140625 71.796875 
Q 19.390625 75.984375 28.609375 75.984375 
z
" id="DejaVuSans-66"/>
     <path d="M 30.609375 48.390625 
Q 23.390625 48.390625 19.1875 42.75 
Q 14.984375 37.109375 14.984375 27.296875 
Q 14.984375 17.484375 19.15625 11.84375 
Q 23.34375 6.203125 30.609375 6.203125 
Q 37.796875 6.203125 41.984375 11.859375 
Q 46.1875 17.53125 46.1875 27.296875 
Q 46.1875 37.015625 41.984375 42.703125 
Q 37.796875 48.390625 30.609375 48.390625 
z
M 30.609375 56 
Q 42.328125 56 49.015625 48.375 
Q 55.71875 40.765625 55.71875 27.296875 
Q 55.71875 13.875 49.015625 6.21875 
Q 42.328125 -1.421875 30.609375 -1.421875 
Q 18.84375 -1.421875 12.171875 6.21875 
Q 5.515625 13.875 5.515625 27.296875 
Q 5.515625 40.765625 12.171875 48.375 
Q 18.84375 56 30.609375 56 
z
" id="DejaVuSans-6f"/>
     <path d="M 9.8125 72.90625 
L 23.09375 72.90625 
L 55.421875 11.921875 
L 55.421875 72.90625 
L 64.984375 72.90625 
L 64.984375 0 
L 51.703125 0 
L 19.390625 60.984375 
L 19.390625 0 
L 9.8125 0 
z
" id="DejaVuSans-4e"/>
     <path d="M 9.8125 72.90625 
L 55.90625 72.90625 
L 55.90625 64.59375 
L 19.671875 64.59375 
L 19.671875 43.015625 
L 54.390625 43.015625 
L 54.390625 34.71875 
L 19.671875 34.71875 
L 19.671875 8.296875 
L 56.78125 8.296875 
L 56.78125 0 
L 9.8125 0 
z
" id="DejaVuSans-45"/>
     <path d="M 3.328125 72.90625 
L 13.28125 72.90625 
L 28.609375 11.28125 
L 43.890625 72.90625 
L 54.984375 72.90625 
L 70.3125 11.28125 
L 85.59375 72.90625 
L 95.609375 72.90625 
L 77.296875 0 
L 64.890625 0 
L 49.515625 63.28125 
L 33.984375 0 
L 21.578125 0 
z
" id="DejaVuSans-57"/>
     <path d="M 64.40625 67.28125 
L 64.40625 56.890625 
Q 59.421875 61.53125 53.78125 63.8125 
Q 48.140625 66.109375 41.796875 66.109375 
Q 29.296875 66.109375 22.65625 58.46875 
Q 16.015625 50.828125 16.015625 36.375 
Q 16.015625 21.96875 22.65625 14.328125 
Q 29.296875 6.6875 41.796875 6.6875 
Q 48.140625 6.6875 53.78125 8.984375 
Q 59.421875 11.28125 64.40625 15.921875 
L 64.40625 5.609375 
Q 59.234375 2.09375 53.4375 0.328125 
Q 47.65625 -1.421875 41.21875 -1.421875 
Q 24.65625 -1.421875 15.125 8.703125 
Q 5.609375 18.84375 5.609375 36.375 
Q 5.609375 53.953125 15.125 64.078125 
Q 24.65625 74.21875 41.21875 74.21875 
Q 47.75 74.21875 53.53125 72.484375 
Q 59.328125 70.75 64.40625 67.28125 
z
" id="DejaVuSans-43"/>
     <path d="M 39.40625 66.21875 
Q 28.65625 66.21875 22.328125 58.203125 
Q 16.015625 50.203125 16.015625 36.375 
Q 16.015625 22.609375 22.328125 14.59375 
Q 28.65625 6.59375 39.40625 6.59375 
Q 50.140625 6.59375 56.421875 14.59375 
Q 62.703125 22.609375 62.703125 36.375 
Q 62.703125 50.203125 56.421875 58.203125 
Q 50.140625 66.21875 39.40625 66.21875 
z
M 39.40625 74.21875 
Q 54.734375 74.21875 63.90625 63.9375 
Q 73.09375 53.65625 73.09375 36.375 
Q 73.09375 19.140625 63.90625 8.859375 
Q 54.734375 -1.421875 39.40625 -1.421875 
Q 24.03125 -1.421875 14.8125 8.828125 
Q 5.609375 19.09375 5.609375 36.375 
Q 5.609375 53.65625 14.8125 63.9375 
Q 24.03125 74.21875 39.40625 74.21875 
z
" id="DejaVuSans-4f"/>
     <path d="M 8.6875 72.90625 
L 18.609375 72.90625 
L 18.609375 28.609375 
Q 18.609375 16.890625 22.84375 11.734375 
Q 27.09375 6.59375 36.625 6.59375 
Q 46.09375 6.59375 50.34375 11.734375 
Q 54.59375 16.890625 54.59375 28.609375 
L 54.59375 72.90625 
L 64.5 72.90625 
L 64.5 27.390625 
Q 64.5 13.140625 57.4375 5.859375 
Q 50.390625 -1.421875 36.625 -1.421875 
Q 22.796875 -1.421875 15.734375 5.859375 
Q 8.6875 13.140625 8.6875 27.390625 
z
" id="DejaVuSans-55"/>
     <path d="M 19.1875 8.296875 
L 53.609375 8.296875 
L 53.609375 0 
L 7.328125 0 
L 7.328125 8.296875 
Q 12.9375 14.109375 22.625 23.890625 
Q 32.328125 33.6875 34.8125 36.53125 
Q 39.546875 41.84375 41.421875 45.53125 
Q 43.3125 49.21875 43.3125 52.78125 
Q 43.3125 58.59375 39.234375 62.25 
Q 35.15625 65.921875 28.609375 65.921875 
Q 23.96875 65.921875 18.8125 64.3125 
Q 13.671875 62.703125 7.8125 59.421875 
L 7.8125 69.390625 
Q 13.765625 71.78125 18.9375 73 
Q 24.125 74.21875 28.421875 74.21875 
Q 39.75 74.21875 46.484375 68.546875 
Q 53.21875 62.890625 53.21875 53.421875 
Q 53.21875 48.921875 51.53125 44.890625 
Q 49.859375 40.875 45.40625 35.40625 
Q 44.1875 33.984375 37.640625 27.21875 
Q 31.109375 20.453125 19.1875 8.296875 
z
" id="DejaVuSans-32"/>
     <path d="M 9.078125 75.984375 
L 18.109375 75.984375 
L 18.109375 31.109375 
L 44.921875 54.6875 
L 56.390625 54.6875 
L 27.390625 29.109375 
L 57.625 0 
L 45.90625 0 
L 18.109375 26.703125 
L 18.109375 0 
L 9.078125 0 
z
" id="DejaVuSans-6b"/>
     <path d="M 52 44.1875 
Q 55.375 50.25 60.0625 53.125 
Q 64.75 56 71.09375 56 
Q 79.640625 56 84.28125 50.015625 
Q 88.921875 44.046875 88.921875 33.015625 
L 88.921875 0 
L 79.890625 0 
L 79.890625 32.71875 
Q 79.890625 40.578125 77.09375 44.375 
Q 74.3125 48.1875 68.609375 48.1875 
Q 61.625 48.1875 57.5625 43.546875 
Q 53.515625 38.921875 53.515625 30.90625 
L 53.515625 0 
L 44.484375 0 
L 44.484375 32.71875 
Q 44.484375 40.625 41.703125 44.40625 
Q 38.921875 48.1875 33.109375 48.1875 
Q 26.21875 48.1875 22.15625 43.53125 
Q 18.109375 38.875 18.109375 30.90625 
L 18.109375 0 
L 9.078125 0 
L 9.078125 54.6875 
L 18.109375 54.6875 
L 18.109375 46.1875 
Q 21.1875 51.21875 25.484375 53.609375 
Q 29.78125 56 35.6875 56 
Q 41.65625 56 45.828125 52.96875 
Q 50 49.953125 52 44.1875 
z
" id="DejaVuSans-6d"/>
     <path d="M 4.203125 54.6875 
L 13.1875 54.6875 
L 24.421875 12.015625 
L 35.59375 54.6875 
L 46.1875 54.6875 
L 57.421875 12.015625 
L 68.609375 54.6875 
L 77.59375 54.6875 
L 63.28125 0 
L 52.6875 0 
L 40.921875 44.828125 
L 29.109375 0 
L 18.5 0 
z
" id="DejaVuSans-77"/>
     <path d="M 54.890625 33.015625 
L 54.890625 0 
L 45.90625 0 
L 45.90625 32.71875 
Q 45.90625 40.484375 42.875 44.328125 
Q 39.84375 48.1875 33.796875 48.1875 
Q 26.515625 48.1875 22.3125 43.546875 
Q 18.109375 38.921875 18.109375 30.90625 
L 18.109375 0 
L 9.078125 0 
L 9.078125 75.984375 
L 18.109375 75.984375 
L 18.109375 46.1875 
Q 21.34375 51.125 25.703125 53.5625 
Q 30.078125 56 35.796875 56 
Q 45.21875 56 50.046875 50.171875 
Q 54.890625 44.34375 54.890625 33.015625 
z
" id="DejaVuSans-68"/>
     <path d="M 44.390625 34.1875 
Q 47.5625 33.109375 50.5625 29.59375 
Q 53.5625 26.078125 56.59375 19.921875 
L 66.609375 0 
L 56 0 
L 46.6875 18.703125 
Q 43.0625 26.03125 39.671875 28.421875 
Q 36.28125 30.8125 30.421875 30.8125 
L 19.671875 30.8125 
L 19.671875 0 
L 9.8125 0 
L 9.8125 72.90625 
L 32.078125 72.90625 
Q 44.578125 72.90625 50.734375 67.671875 
Q 56.890625 62.453125 56.890625 51.90625 
Q 56.890625 45.015625 53.6875 40.46875 
Q 50.484375 35.9375 44.390625 34.1875 
z
M 19.671875 64.796875 
L 19.671875 38.921875 
L 32.078125 38.921875 
Q 39.203125 38.921875 42.84375 42.21875 
Q 46.484375 45.515625 46.484375 51.90625 
Q 46.484375 58.296875 42.84375 61.546875 
Q 39.203125 64.796875 32.078125 64.796875 
z
" id="DejaVuSans-52"/>
     <path d="M 9.8125 72.90625 
L 51.703125 72.90625 
L 51.703125 64.59375 
L 19.671875 64.59375 
L 19.671875 43.109375 
L 48.578125 43.109375 
L 48.578125 34.8125 
L 19.671875 34.8125 
L 19.671875 0 
L 9.8125 0 
z
" id="DejaVuSans-46"/>
     <path d="M 28.609375 0 
L 0.78125 72.90625 
L 11.078125 72.90625 
L 34.1875 11.53125 
L 57.328125 72.90625 
L 67.578125 72.90625 
L 39.796875 0 
z
" id="DejaVuSans-56"/>
     <path d="M 37.796875 64.3125 
L 12.890625 25.390625 
L 37.796875 25.390625 
z
M 35.203125 72.90625 
L 47.609375 72.90625 
L 47.609375 25.390625 
L 58.015625 25.390625 
L 58.015625 17.1875 
L 47.609375 17.1875 
L 47.609375 0 
L 37.796875 0 
L 37.796875 17.1875 
L 4.890625 17.1875 
L 4.890625 26.703125 
z
" id="DejaVuSans-34"/>
     <path d="M 10.6875 12.40625 
L 21 12.40625 
L 21 0 
L 10.6875 0 
z
" id="DejaVuSans-2e"/>
    </defs>
    <g transform="translate(7.2 16.318125)scale(0.12 -0.12)">
     <use xlink:href="#DejaVuSans-53"/>
     <use x="63.476562" xlink:href="#DejaVuSans-63"/>
     <use x="118.457031" xlink:href="#DejaVuSans-61"/>
     <use x="179.736328" xlink:href="#DejaVuSans-6c"/>
     <use x="207.519531" xlink:href="#DejaVuSans-69"/>
     <use x="235.302734" xlink:href="#DejaVuSans-6e"/>
     <use x="298.681641" xlink:href="#DejaVuSans-67"/>
     <use x="362.158203" xlink:href="#DejaVuSans-20"/>
     <use x="393.945312" xlink:href="#DejaVuSans-72"/>
     <use x="435.027344" xlink:href="#DejaVuSans-65"/>
     <use x="496.550781" xlink:href="#DejaVuSans-73"/>
     <use x="548.650391" xlink:href="#DejaVuSans-75"/>
     <use x="612.029297" xlink:href="#DejaVuSans-6c"/>
     <use x="639.8125" xlink:href="#DejaVuSans-74"/>
     <use x="679.021484" xlink:href="#DejaVuSans-73"/>
     <use x="731.121094" xlink:href="#DejaVuSans-20"/>
     <use x="762.908203" xlink:href="#DejaVuSans-66"/>
     <use x="798.113281" xlink:href="#DejaVuSans-6f"/>
     <use x="859.294922" xlink:href="#DejaVuSans-72"/>
     <use x="900.408203" xlink:href="#DejaVuSans-20"/>
     <use x="932.195312" xlink:href="#DejaVuSans-4e"/>
     <use x="1007" xlink:href="#DejaVuSans-45"/>
     <use x="1070.183594" xlink:href="#DejaVuSans-57"/>
     <use x="1169.060547" xlink:href="#DejaVuSans-20"/>
     <use x="1200.847656" xlink:href="#DejaVuSans-43"/>
     <use x="1270.671875" xlink:href="#DejaVuSans-4f"/>
     <use x="1349.382812" xlink:href="#DejaVuSans-4e"/>
     <use x="1424.1875" xlink:href="#DejaVuSans-55"/>
     <use x="1497.380859" xlink:href="#DejaVuSans-53"/>
     <use x="1560.857422" xlink:href="#DejaVuSans-20"/>
     <use x="1592.644531" xlink:href="#DejaVuSans-31"/>
     <use x="1656.267578" xlink:href="#DejaVuSans-32"/>
     <use x="1719.890625" xlink:href="#DejaVuSans-6b"/>
     <use x="1777.800781" xlink:href="#DejaVuSans-6d"/>
     <use x="1875.212891" xlink:href="#DejaVuSans-20"/>
     <use x="1907" xlink:href="#DejaVuSans-77"/>
     <use x="1988.787109" xlink:href="#DejaVuSans-69"/>
     <use x="2016.570312" xlink:href="#DejaVuSans-74"/>
     <use x="2055.779297" xlink:href="#DejaVuSans-68"/>
     <use x="2119.158203" xlink:href="#DejaVuSans-20"/>
     <use x="2150.945312" xlink:href="#DejaVuSans-57"/>
     <use x="2249.822266" xlink:href="#DejaVuSans-52"/>
     <use x="2319.304688" xlink:href="#DejaVuSans-46"/>
     <use x="2376.824219" xlink:href="#DejaVuSans-56"/>
     <use x="2445.232422" xlink:href="#DejaVuSans-34"/>
     <use x="2508.855469" xlink:href="#DejaVuSans-2e"/>
     <use x="2540.642578" xlink:href="#DejaVuSans-30"/>
    </g>
   </g>
   <g id="legend_1">
    <g id="patch_7">
     <path d="M 279.987031 208.95875 
L 476.579219 208.95875 
Q 478.579219 208.95875 478.579219 206.95875 
L 478.579219 29.318125 
Q 478.579219 27.318125 476.579219 27.318125 
L 279.987031 27.318125 
Q 277.987031 27.318125 277.987031 29.318125 
L 277.987031 206.95875 
Q 277.987031 208.95875 279.987031 208.95875 
z
" style="fill:#ffffff;opacity:0.8;stroke:#cccccc;stroke-linejoin:miter;"/>
    </g>
    <g id="line2d_39">
     <path d="M 281.987031 35.416562 
L 301.987031 35.416562 
" style="fill:none;stroke:#1f77b4;stroke-dasharray:5.55,2.4;stroke-dashoffset:0;stroke-width:1.5;"/>
    </g>
    <g id="line2d_40">
     <g>
      <use style="fill:#1f77b4;stroke:#1f77b4;" x="291.987031" xlink:href="#mbcec0bb310" y="35.416562"/>
     </g>
    </g>
    <g id="text_7">
     <!-- gnu8.1.0 - mpt2.18 -->
     <defs>
      <path d="M 31.78125 34.625 
Q 24.75 34.625 20.71875 30.859375 
Q 16.703125 27.09375 16.703125 20.515625 
Q 16.703125 13.921875 20.71875 10.15625 
Q 24.75 6.390625 31.78125 6.390625 
Q 38.8125 6.390625 42.859375 10.171875 
Q 46.921875 13.96875 46.921875 20.515625 
Q 46.921875 27.09375 42.890625 30.859375 
Q 38.875 34.625 31.78125 34.625 
z
M 21.921875 38.8125 
Q 15.578125 40.375 12.03125 44.71875 
Q 8.5 49.078125 8.5 55.328125 
Q 8.5 64.0625 14.71875 69.140625 
Q 20.953125 74.21875 31.78125 74.21875 
Q 42.671875 74.21875 48.875 69.140625 
Q 55.078125 64.0625 55.078125 55.328125 
Q 55.078125 49.078125 51.53125 44.71875 
Q 48 40.375 41.703125 38.8125 
Q 48.828125 37.15625 52.796875 32.3125 
Q 56.78125 27.484375 56.78125 20.515625 
Q 56.78125 9.90625 50.3125 4.234375 
Q 43.84375 -1.421875 31.78125 -1.421875 
Q 19.734375 -1.421875 13.25 4.234375 
Q 6.78125 9.90625 6.78125 20.515625 
Q 6.78125 27.484375 10.78125 32.3125 
Q 14.796875 37.15625 21.921875 38.8125 
z
M 18.3125 54.390625 
Q 18.3125 48.734375 21.84375 45.5625 
Q 25.390625 42.390625 31.78125 42.390625 
Q 38.140625 42.390625 41.71875 45.5625 
Q 45.3125 48.734375 45.3125 54.390625 
Q 45.3125 60.0625 41.71875 63.234375 
Q 38.140625 66.40625 31.78125 66.40625 
Q 25.390625 66.40625 21.84375 63.234375 
Q 18.3125 60.0625 18.3125 54.390625 
z
" id="DejaVuSans-38"/>
      <path d="M 4.890625 31.390625 
L 31.203125 31.390625 
L 31.203125 23.390625 
L 4.890625 23.390625 
z
" id="DejaVuSans-2d"/>
      <path d="M 18.109375 8.203125 
L 18.109375 -20.796875 
L 9.078125 -20.796875 
L 9.078125 54.6875 
L 18.109375 54.6875 
L 18.109375 46.390625 
Q 20.953125 51.265625 25.265625 53.625 
Q 29.59375 56 35.59375 56 
Q 45.5625 56 51.78125 48.09375 
Q 58.015625 40.1875 58.015625 27.296875 
Q 58.015625 14.40625 51.78125 6.484375 
Q 45.5625 -1.421875 35.59375 -1.421875 
Q 29.59375 -1.421875 25.265625 0.953125 
Q 20.953125 3.328125 18.109375 8.203125 
z
M 48.6875 27.296875 
Q 48.6875 37.203125 44.609375 42.84375 
Q 40.53125 48.484375 33.40625 48.484375 
Q 26.265625 48.484375 22.1875 42.84375 
Q 18.109375 37.203125 18.109375 27.296875 
Q 18.109375 17.390625 22.1875 11.75 
Q 26.265625 6.109375 33.40625 6.109375 
Q 40.53125 6.109375 44.609375 11.75 
Q 48.6875 17.390625 48.6875 27.296875 
z
" id="DejaVuSans-70"/>
     </defs>
     <g transform="translate(309.987031 38.916562)scale(0.1 -0.1)">
      <use xlink:href="#DejaVuSans-67"/>
      <use x="63.476562" xlink:href="#DejaVuSans-6e"/>
      <use x="126.855469" xlink:href="#DejaVuSans-75"/>
      <use x="190.234375" xlink:href="#DejaVuSans-38"/>
      <use x="253.857422" xlink:href="#DejaVuSans-2e"/>
      <use x="285.644531" xlink:href="#DejaVuSans-31"/>
      <use x="349.267578" xlink:href="#DejaVuSans-2e"/>
      <use x="381.054688" xlink:href="#DejaVuSans-30"/>
      <use x="444.677734" xlink:href="#DejaVuSans-20"/>
      <use x="476.464844" xlink:href="#DejaVuSans-2d"/>
      <use x="512.548828" xlink:href="#DejaVuSans-20"/>
      <use x="544.335938" xlink:href="#DejaVuSans-6d"/>
      <use x="641.748047" xlink:href="#DejaVuSans-70"/>
      <use x="705.224609" xlink:href="#DejaVuSans-74"/>
      <use x="744.433594" xlink:href="#DejaVuSans-32"/>
      <use x="808.056641" xlink:href="#DejaVuSans-2e"/>
      <use x="839.84375" xlink:href="#DejaVuSans-31"/>
      <use x="903.466797" xlink:href="#DejaVuSans-38"/>
     </g>
    </g>
    <g id="line2d_41">
     <path d="M 281.987031 50.094688 
L 301.987031 50.094688 
" style="fill:none;stroke:#ff7f0e;stroke-dasharray:5.55,2.4;stroke-dashoffset:0;stroke-width:1.5;"/>
    </g>
    <g id="line2d_42">
     <g>
      <use style="fill:#ff7f0e;stroke:#ff7f0e;" x="291.987031" xlink:href="#mf318306be8" y="50.094688"/>
     </g>
    </g>
    <g id="text_8">
     <!-- gnu8.1.0 - mvapich2.2 -->
     <defs>
      <path d="M 2.984375 54.6875 
L 12.5 54.6875 
L 29.59375 8.796875 
L 46.6875 54.6875 
L 56.203125 54.6875 
L 35.6875 0 
L 23.484375 0 
z
" id="DejaVuSans-76"/>
     </defs>
     <g transform="translate(309.987031 53.594688)scale(0.1 -0.1)">
      <use xlink:href="#DejaVuSans-67"/>
      <use x="63.476562" xlink:href="#DejaVuSans-6e"/>
      <use x="126.855469" xlink:href="#DejaVuSans-75"/>
      <use x="190.234375" xlink:href="#DejaVuSans-38"/>
      <use x="253.857422" xlink:href="#DejaVuSans-2e"/>
      <use x="285.644531" xlink:href="#DejaVuSans-31"/>
      <use x="349.267578" xlink:href="#DejaVuSans-2e"/>
      <use x="381.054688" xlink:href="#DejaVuSans-30"/>
      <use x="444.677734" xlink:href="#DejaVuSans-20"/>
      <use x="476.464844" xlink:href="#DejaVuSans-2d"/>
      <use x="512.548828" xlink:href="#DejaVuSans-20"/>
      <use x="544.335938" xlink:href="#DejaVuSans-6d"/>
      <use x="641.748047" xlink:href="#DejaVuSans-76"/>
      <use x="700.927734" xlink:href="#DejaVuSans-61"/>
      <use x="762.207031" xlink:href="#DejaVuSans-70"/>
      <use x="825.683594" xlink:href="#DejaVuSans-69"/>
      <use x="853.466797" xlink:href="#DejaVuSans-63"/>
      <use x="908.447266" xlink:href="#DejaVuSans-68"/>
      <use x="971.826172" xlink:href="#DejaVuSans-32"/>
      <use x="1035.449219" xlink:href="#DejaVuSans-2e"/>
      <use x="1067.236328" xlink:href="#DejaVuSans-32"/>
     </g>
    </g>
    <g id="line2d_43">
     <path d="M 281.987031 64.772813 
L 301.987031 64.772813 
" style="fill:none;stroke:#2ca02c;stroke-dasharray:5.55,2.4;stroke-dashoffset:0;stroke-width:1.5;"/>
    </g>
    <g id="line2d_44">
     <g>
      <use style="fill:#2ca02c;stroke:#2ca02c;" x="291.987031" xlink:href="#m05eeb33be5" y="64.772813"/>
     </g>
    </g>
    <g id="text_9">
     <!-- gnu8.1.0_O3 - mvapich2.2 -->
     <defs>
      <path d="M 50.984375 -16.609375 
L 50.984375 -23.578125 
L -0.984375 -23.578125 
L -0.984375 -16.609375 
z
" id="DejaVuSans-5f"/>
     </defs>
     <g transform="translate(309.987031 68.272813)scale(0.1 -0.1)">
      <use xlink:href="#DejaVuSans-67"/>
      <use x="63.476562" xlink:href="#DejaVuSans-6e"/>
      <use x="126.855469" xlink:href="#DejaVuSans-75"/>
      <use x="190.234375" xlink:href="#DejaVuSans-38"/>
      <use x="253.857422" xlink:href="#DejaVuSans-2e"/>
      <use x="285.644531" xlink:href="#DejaVuSans-31"/>
      <use x="349.267578" xlink:href="#DejaVuSans-2e"/>
      <use x="381.054688" xlink:href="#DejaVuSans-30"/>
      <use x="444.677734" xlink:href="#DejaVuSans-5f"/>
      <use x="494.677734" xlink:href="#DejaVuSans-4f"/>
      <use x="573.388672" xlink:href="#DejaVuSans-33"/>
      <use x="637.011719" xlink:href="#DejaVuSans-20"/>
      <use x="668.798828" xlink:href="#DejaVuSans-2d"/>
      <use x="704.882812" xlink:href="#DejaVuSans-20"/>
      <use x="736.669922" xlink:href="#DejaVuSans-6d"/>
      <use x="834.082031" xlink:href="#DejaVuSans-76"/>
      <use x="893.261719" xlink:href="#DejaVuSans-61"/>
      <use x="954.541016" xlink:href="#DejaVuSans-70"/>
      <use x="1018.017578" xlink:href="#DejaVuSans-69"/>
      <use x="1045.800781" xlink:href="#DejaVuSans-63"/>
      <use x="1100.78125" xlink:href="#DejaVuSans-68"/>
      <use x="1164.160156" xlink:href="#DejaVuSans-32"/>
      <use x="1227.783203" xlink:href="#DejaVuSans-2e"/>
      <use x="1259.570312" xlink:href="#DejaVuSans-32"/>
     </g>
    </g>
    <g id="line2d_45">
     <path d="M 281.987031 79.729062 
L 301.987031 79.729062 
" style="fill:none;stroke:#d62728;stroke-dasharray:5.55,2.4;stroke-dashoffset:0;stroke-width:1.5;"/>
    </g>
    <g id="line2d_46">
     <g>
      <use style="fill:#d62728;stroke:#d62728;" x="291.987031" xlink:href="#m7bff061891" y="79.729062"/>
     </g>
    </g>
    <g id="text_10">
     <!-- gnu8.1.0_fma - mvapich2.2 -->
     <g transform="translate(309.987031 83.229062)scale(0.1 -0.1)">
      <use xlink:href="#DejaVuSans-67"/>
      <use x="63.476562" xlink:href="#DejaVuSans-6e"/>
      <use x="126.855469" xlink:href="#DejaVuSans-75"/>
      <use x="190.234375" xlink:href="#DejaVuSans-38"/>
      <use x="253.857422" xlink:href="#DejaVuSans-2e"/>
      <use x="285.644531" xlink:href="#DejaVuSans-31"/>
      <use x="349.267578" xlink:href="#DejaVuSans-2e"/>
      <use x="381.054688" xlink:href="#DejaVuSans-30"/>
      <use x="444.677734" xlink:href="#DejaVuSans-5f"/>
      <use x="494.677734" xlink:href="#DejaVuSans-66"/>
      <use x="529.882812" xlink:href="#DejaVuSans-6d"/>
      <use x="627.294922" xlink:href="#DejaVuSans-61"/>
      <use x="688.574219" xlink:href="#DejaVuSans-20"/>
      <use x="720.361328" xlink:href="#DejaVuSans-2d"/>
      <use x="756.445312" xlink:href="#DejaVuSans-20"/>
      <use x="788.232422" xlink:href="#DejaVuSans-6d"/>
      <use x="885.644531" xlink:href="#DejaVuSans-76"/>
      <use x="944.824219" xlink:href="#DejaVuSans-61"/>
      <use x="1006.103516" xlink:href="#DejaVuSans-70"/>
      <use x="1069.580078" xlink:href="#DejaVuSans-69"/>
      <use x="1097.363281" xlink:href="#DejaVuSans-63"/>
      <use x="1152.34375" xlink:href="#DejaVuSans-68"/>
      <use x="1215.722656" xlink:href="#DejaVuSans-32"/>
      <use x="1279.345703" xlink:href="#DejaVuSans-2e"/>
      <use x="1311.132812" xlink:href="#DejaVuSans-32"/>
     </g>
    </g>
    <g id="line2d_47">
     <path d="M 281.987031 94.685313 
L 301.987031 94.685313 
" style="fill:none;stroke:#9467bd;stroke-dasharray:5.55,2.4;stroke-dashoffset:0;stroke-width:1.5;"/>
    </g>
    <g id="line2d_48">
     <g>
      <use style="fill:#9467bd;stroke:#9467bd;" x="291.987031" xlink:href="#m1fd56ba2ca" y="94.685313"/>
     </g>
    </g>
    <g id="text_11">
     <!-- gnu8.1.0_O3_fma - mvapich2.2 -->
     <g transform="translate(309.987031 98.185313)scale(0.1 -0.1)">
      <use xlink:href="#DejaVuSans-67"/>
      <use x="63.476562" xlink:href="#DejaVuSans-6e"/>
      <use x="126.855469" xlink:href="#DejaVuSans-75"/>
      <use x="190.234375" xlink:href="#DejaVuSans-38"/>
      <use x="253.857422" xlink:href="#DejaVuSans-2e"/>
      <use x="285.644531" xlink:href="#DejaVuSans-31"/>
      <use x="349.267578" xlink:href="#DejaVuSans-2e"/>
      <use x="381.054688" xlink:href="#DejaVuSans-30"/>
      <use x="444.677734" xlink:href="#DejaVuSans-5f"/>
      <use x="494.677734" xlink:href="#DejaVuSans-4f"/>
      <use x="573.388672" xlink:href="#DejaVuSans-33"/>
      <use x="637.011719" xlink:href="#DejaVuSans-5f"/>
      <use x="687.011719" xlink:href="#DejaVuSans-66"/>
      <use x="722.216797" xlink:href="#DejaVuSans-6d"/>
      <use x="819.628906" xlink:href="#DejaVuSans-61"/>
      <use x="880.908203" xlink:href="#DejaVuSans-20"/>
      <use x="912.695312" xlink:href="#DejaVuSans-2d"/>
      <use x="948.779297" xlink:href="#DejaVuSans-20"/>
      <use x="980.566406" xlink:href="#DejaVuSans-6d"/>
      <use x="1077.978516" xlink:href="#DejaVuSans-76"/>
      <use x="1137.158203" xlink:href="#DejaVuSans-61"/>
      <use x="1198.4375" xlink:href="#DejaVuSans-70"/>
      <use x="1261.914062" xlink:href="#DejaVuSans-69"/>
      <use x="1289.697266" xlink:href="#DejaVuSans-63"/>
      <use x="1344.677734" xlink:href="#DejaVuSans-68"/>
      <use x="1408.056641" xlink:href="#DejaVuSans-32"/>
      <use x="1471.679688" xlink:href="#DejaVuSans-2e"/>
      <use x="1503.466797" xlink:href="#DejaVuSans-32"/>
     </g>
    </g>
    <g id="line2d_49">
     <path d="M 281.987031 109.641563 
L 301.987031 109.641563 
" style="fill:none;stroke:#8c564b;stroke-dasharray:5.55,2.4;stroke-dashoffset:0;stroke-width:1.5;"/>
    </g>
    <g id="line2d_50">
     <g>
      <use style="fill:#8c564b;stroke:#8c564b;" x="291.987031" xlink:href="#m145a2ee5a2" y="109.641563"/>
     </g>
    </g>
    <g id="text_12">
     <!-- gnu8.1.0_O3_native - mpt2.18 -->
     <g transform="translate(309.987031 113.141563)scale(0.1 -0.1)">
      <use xlink:href="#DejaVuSans-67"/>
      <use x="63.476562" xlink:href="#DejaVuSans-6e"/>
      <use x="126.855469" xlink:href="#DejaVuSans-75"/>
      <use x="190.234375" xlink:href="#DejaVuSans-38"/>
      <use x="253.857422" xlink:href="#DejaVuSans-2e"/>
      <use x="285.644531" xlink:href="#DejaVuSans-31"/>
      <use x="349.267578" xlink:href="#DejaVuSans-2e"/>
      <use x="381.054688" xlink:href="#DejaVuSans-30"/>
      <use x="444.677734" xlink:href="#DejaVuSans-5f"/>
      <use x="494.677734" xlink:href="#DejaVuSans-4f"/>
      <use x="573.388672" xlink:href="#DejaVuSans-33"/>
      <use x="637.011719" xlink:href="#DejaVuSans-5f"/>
      <use x="687.011719" xlink:href="#DejaVuSans-6e"/>
      <use x="750.390625" xlink:href="#DejaVuSans-61"/>
      <use x="811.669922" xlink:href="#DejaVuSans-74"/>
      <use x="850.878906" xlink:href="#DejaVuSans-69"/>
      <use x="878.662109" xlink:href="#DejaVuSans-76"/>
      <use x="937.841797" xlink:href="#DejaVuSans-65"/>
      <use x="999.365234" xlink:href="#DejaVuSans-20"/>
      <use x="1031.152344" xlink:href="#DejaVuSans-2d"/>
      <use x="1067.236328" xlink:href="#DejaVuSans-20"/>
      <use x="1099.023438" xlink:href="#DejaVuSans-6d"/>
      <use x="1196.435547" xlink:href="#DejaVuSans-70"/>
      <use x="1259.912109" xlink:href="#DejaVuSans-74"/>
      <use x="1299.121094" xlink:href="#DejaVuSans-32"/>
      <use x="1362.744141" xlink:href="#DejaVuSans-2e"/>
      <use x="1394.53125" xlink:href="#DejaVuSans-31"/>
      <use x="1458.154297" xlink:href="#DejaVuSans-38"/>
     </g>
    </g>
    <g id="line2d_51">
     <path d="M 281.987031 124.597813 
L 301.987031 124.597813 
" style="fill:none;stroke:#e377c2;stroke-dasharray:5.55,2.4;stroke-dashoffset:0;stroke-width:1.5;"/>
    </g>
    <g id="line2d_52">
     <g>
      <use style="fill:#e377c2;stroke:#e377c2;" x="291.987031" xlink:href="#m7d5901eecd" y="124.597813"/>
     </g>
    </g>
    <g id="text_13">
     <!-- gnu8.1.0_Ofast - mpt2.18 -->
     <g transform="translate(309.987031 128.097813)scale(0.1 -0.1)">
      <use xlink:href="#DejaVuSans-67"/>
      <use x="63.476562" xlink:href="#DejaVuSans-6e"/>
      <use x="126.855469" xlink:href="#DejaVuSans-75"/>
      <use x="190.234375" xlink:href="#DejaVuSans-38"/>
      <use x="253.857422" xlink:href="#DejaVuSans-2e"/>
      <use x="285.644531" xlink:href="#DejaVuSans-31"/>
      <use x="349.267578" xlink:href="#DejaVuSans-2e"/>
      <use x="381.054688" xlink:href="#DejaVuSans-30"/>
      <use x="444.677734" xlink:href="#DejaVuSans-5f"/>
      <use x="494.677734" xlink:href="#DejaVuSans-4f"/>
      <use x="573.388672" xlink:href="#DejaVuSans-66"/>
      <use x="608.59375" xlink:href="#DejaVuSans-61"/>
      <use x="669.873047" xlink:href="#DejaVuSans-73"/>
      <use x="721.972656" xlink:href="#DejaVuSans-74"/>
      <use x="761.181641" xlink:href="#DejaVuSans-20"/>
      <use x="792.96875" xlink:href="#DejaVuSans-2d"/>
      <use x="829.052734" xlink:href="#DejaVuSans-20"/>
      <use x="860.839844" xlink:href="#DejaVuSans-6d"/>
      <use x="958.251953" xlink:href="#DejaVuSans-70"/>
      <use x="1021.728516" xlink:href="#DejaVuSans-74"/>
      <use x="1060.9375" xlink:href="#DejaVuSans-32"/>
      <use x="1124.560547" xlink:href="#DejaVuSans-2e"/>
      <use x="1156.347656" xlink:href="#DejaVuSans-31"/>
      <use x="1219.970703" xlink:href="#DejaVuSans-38"/>
     </g>
    </g>
    <g id="line2d_53">
     <path d="M 281.987031 139.554062 
L 301.987031 139.554062 
" style="fill:none;stroke:#7f7f7f;stroke-dasharray:5.55,2.4;stroke-dashoffset:0;stroke-width:1.5;"/>
    </g>
    <g id="line2d_54">
     <g>
      <use style="fill:#7f7f7f;stroke:#7f7f7f;" x="291.987031" xlink:href="#me4574e7bb1" y="139.554062"/>
     </g>
    </g>
    <g id="text_14">
     <!-- gnu8.1.0_Ofast_native - mpt2.18 -->
     <g transform="translate(309.987031 143.054062)scale(0.1 -0.1)">
      <use xlink:href="#DejaVuSans-67"/>
      <use x="63.476562" xlink:href="#DejaVuSans-6e"/>
      <use x="126.855469" xlink:href="#DejaVuSans-75"/>
      <use x="190.234375" xlink:href="#DejaVuSans-38"/>
      <use x="253.857422" xlink:href="#DejaVuSans-2e"/>
      <use x="285.644531" xlink:href="#DejaVuSans-31"/>
      <use x="349.267578" xlink:href="#DejaVuSans-2e"/>
      <use x="381.054688" xlink:href="#DejaVuSans-30"/>
      <use x="444.677734" xlink:href="#DejaVuSans-5f"/>
      <use x="494.677734" xlink:href="#DejaVuSans-4f"/>
      <use x="573.388672" xlink:href="#DejaVuSans-66"/>
      <use x="608.59375" xlink:href="#DejaVuSans-61"/>
      <use x="669.873047" xlink:href="#DejaVuSans-73"/>
      <use x="721.972656" xlink:href="#DejaVuSans-74"/>
      <use x="761.181641" xlink:href="#DejaVuSans-5f"/>
      <use x="811.181641" xlink:href="#DejaVuSans-6e"/>
      <use x="874.560547" xlink:href="#DejaVuSans-61"/>
      <use x="935.839844" xlink:href="#DejaVuSans-74"/>
      <use x="975.048828" xlink:href="#DejaVuSans-69"/>
      <use x="1002.832031" xlink:href="#DejaVuSans-76"/>
      <use x="1062.011719" xlink:href="#DejaVuSans-65"/>
      <use x="1123.535156" xlink:href="#DejaVuSans-20"/>
      <use x="1155.322266" xlink:href="#DejaVuSans-2d"/>
      <use x="1191.40625" xlink:href="#DejaVuSans-20"/>
      <use x="1223.193359" xlink:href="#DejaVuSans-6d"/>
      <use x="1320.605469" xlink:href="#DejaVuSans-70"/>
      <use x="1384.082031" xlink:href="#DejaVuSans-74"/>
      <use x="1423.291016" xlink:href="#DejaVuSans-32"/>
      <use x="1486.914062" xlink:href="#DejaVuSans-2e"/>
      <use x="1518.701172" xlink:href="#DejaVuSans-31"/>
      <use x="1582.324219" xlink:href="#DejaVuSans-38"/>
     </g>
    </g>
    <g id="line2d_55">
     <path d="M 281.987031 154.510312 
L 301.987031 154.510312 
" style="fill:none;stroke:#bcbd22;stroke-dasharray:5.55,2.4;stroke-dashoffset:0;stroke-width:1.5;"/>
    </g>
    <g id="line2d_56">
     <g>
      <use style="fill:#bcbd22;stroke:#bcbd22;" x="291.987031" xlink:href="#mdc3654ad9c" y="154.510312"/>
     </g>
    </g>
    <g id="text_15">
     <!-- intel18.0.1 - mpt2.18 -->
     <g transform="translate(309.987031 158.010312)scale(0.1 -0.1)">
      <use xlink:href="#DejaVuSans-69"/>
      <use x="27.783203" xlink:href="#DejaVuSans-6e"/>
      <use x="91.162109" xlink:href="#DejaVuSans-74"/>
      <use x="130.371094" xlink:href="#DejaVuSans-65"/>
      <use x="191.894531" xlink:href="#DejaVuSans-6c"/>
      <use x="219.677734" xlink:href="#DejaVuSans-31"/>
      <use x="283.300781" xlink:href="#DejaVuSans-38"/>
      <use x="346.923828" xlink:href="#DejaVuSans-2e"/>
      <use x="378.710938" xlink:href="#DejaVuSans-30"/>
      <use x="442.333984" xlink:href="#DejaVuSans-2e"/>
      <use x="474.121094" xlink:href="#DejaVuSans-31"/>
      <use x="537.744141" xlink:href="#DejaVuSans-20"/>
      <use x="569.53125" xlink:href="#DejaVuSans-2d"/>
      <use x="605.615234" xlink:href="#DejaVuSans-20"/>
      <use x="637.402344" xlink:href="#DejaVuSans-6d"/>
      <use x="734.814453" xlink:href="#DejaVuSans-70"/>
      <use x="798.291016" xlink:href="#DejaVuSans-74"/>
      <use x="837.5" xlink:href="#DejaVuSans-32"/>
      <use x="901.123047" xlink:href="#DejaVuSans-2e"/>
      <use x="932.910156" xlink:href="#DejaVuSans-31"/>
      <use x="996.533203" xlink:href="#DejaVuSans-38"/>
     </g>
    </g>
    <g id="line2d_57">
     <path d="M 281.987031 169.188437 
L 301.987031 169.188437 
" style="fill:none;stroke:#17becf;stroke-dasharray:5.55,2.4;stroke-dashoffset:0;stroke-width:1.5;"/>
    </g>
    <g id="line2d_58">
     <g>
      <use style="fill:#17becf;stroke:#17becf;" x="291.987031" xlink:href="#m3d25453786" y="169.188437"/>
     </g>
    </g>
    <g id="text_16">
     <!-- intel18.0.1_O2 - mpt2.18 -->
     <g transform="translate(309.987031 172.688437)scale(0.1 -0.1)">
      <use xlink:href="#DejaVuSans-69"/>
      <use x="27.783203" xlink:href="#DejaVuSans-6e"/>
      <use x="91.162109" xlink:href="#DejaVuSans-74"/>
      <use x="130.371094" xlink:href="#DejaVuSans-65"/>
      <use x="191.894531" xlink:href="#DejaVuSans-6c"/>
      <use x="219.677734" xlink:href="#DejaVuSans-31"/>
      <use x="283.300781" xlink:href="#DejaVuSans-38"/>
      <use x="346.923828" xlink:href="#DejaVuSans-2e"/>
      <use x="378.710938" xlink:href="#DejaVuSans-30"/>
      <use x="442.333984" xlink:href="#DejaVuSans-2e"/>
      <use x="474.121094" xlink:href="#DejaVuSans-31"/>
      <use x="537.744141" xlink:href="#DejaVuSans-5f"/>
      <use x="587.744141" xlink:href="#DejaVuSans-4f"/>
      <use x="666.455078" xlink:href="#DejaVuSans-32"/>
      <use x="730.078125" xlink:href="#DejaVuSans-20"/>
      <use x="761.865234" xlink:href="#DejaVuSans-2d"/>
      <use x="797.949219" xlink:href="#DejaVuSans-20"/>
      <use x="829.736328" xlink:href="#DejaVuSans-6d"/>
      <use x="927.148438" xlink:href="#DejaVuSans-70"/>
      <use x="990.625" xlink:href="#DejaVuSans-74"/>
      <use x="1029.833984" xlink:href="#DejaVuSans-32"/>
      <use x="1093.457031" xlink:href="#DejaVuSans-2e"/>
      <use x="1125.244141" xlink:href="#DejaVuSans-31"/>
      <use x="1188.867188" xlink:href="#DejaVuSans-38"/>
     </g>
    </g>
    <g id="line2d_59">
     <path d="M 281.987031 184.144688 
L 301.987031 184.144688 
" style="fill:none;stroke:#1f77b4;stroke-dasharray:5.55,2.4;stroke-dashoffset:0;stroke-width:1.5;"/>
    </g>
    <g id="line2d_60">
     <g>
      <use style="fill:#1f77b4;stroke:#1f77b4;" x="291.987031" xlink:href="#mbcec0bb310" y="184.144688"/>
     </g>
    </g>
    <g id="text_17">
     <!-- intel18.0.1_host - mpt2.18 -->
     <g transform="translate(309.987031 187.644688)scale(0.1 -0.1)">
      <use xlink:href="#DejaVuSans-69"/>
      <use x="27.783203" xlink:href="#DejaVuSans-6e"/>
      <use x="91.162109" xlink:href="#DejaVuSans-74"/>
      <use x="130.371094" xlink:href="#DejaVuSans-65"/>
      <use x="191.894531" xlink:href="#DejaVuSans-6c"/>
      <use x="219.677734" xlink:href="#DejaVuSans-31"/>
      <use x="283.300781" xlink:href="#DejaVuSans-38"/>
      <use x="346.923828" xlink:href="#DejaVuSans-2e"/>
      <use x="378.710938" xlink:href="#DejaVuSans-30"/>
      <use x="442.333984" xlink:href="#DejaVuSans-2e"/>
      <use x="474.121094" xlink:href="#DejaVuSans-31"/>
      <use x="537.744141" xlink:href="#DejaVuSans-5f"/>
      <use x="587.744141" xlink:href="#DejaVuSans-68"/>
      <use x="651.123047" xlink:href="#DejaVuSans-6f"/>
      <use x="712.304688" xlink:href="#DejaVuSans-73"/>
      <use x="764.404297" xlink:href="#DejaVuSans-74"/>
      <use x="803.613281" xlink:href="#DejaVuSans-20"/>
      <use x="835.400391" xlink:href="#DejaVuSans-2d"/>
      <use x="871.484375" xlink:href="#DejaVuSans-20"/>
      <use x="903.271484" xlink:href="#DejaVuSans-6d"/>
      <use x="1000.683594" xlink:href="#DejaVuSans-70"/>
      <use x="1064.160156" xlink:href="#DejaVuSans-74"/>
      <use x="1103.369141" xlink:href="#DejaVuSans-32"/>
      <use x="1166.992188" xlink:href="#DejaVuSans-2e"/>
      <use x="1198.779297" xlink:href="#DejaVuSans-31"/>
      <use x="1262.402344" xlink:href="#DejaVuSans-38"/>
     </g>
    </g>
    <g id="line2d_61">
     <path d="M 281.987031 199.100938 
L 301.987031 199.100938 
" style="fill:none;stroke:#ff7f0e;stroke-dasharray:5.55,2.4;stroke-dashoffset:0;stroke-width:1.5;"/>
    </g>
    <g id="line2d_62">
     <g>
      <use style="fill:#ff7f0e;stroke:#ff7f0e;" x="291.987031" xlink:href="#mf318306be8" y="199.100938"/>
     </g>
    </g>
    <g id="text_18">
     <!-- intel18.0.1_opt66 - mpt2.18 -->
     <defs>
      <path d="M 33.015625 40.375 
Q 26.375 40.375 22.484375 35.828125 
Q 18.609375 31.296875 18.609375 23.390625 
Q 18.609375 15.53125 22.484375 10.953125 
Q 26.375 6.390625 33.015625 6.390625 
Q 39.65625 6.390625 43.53125 10.953125 
Q 47.40625 15.53125 47.40625 23.390625 
Q 47.40625 31.296875 43.53125 35.828125 
Q 39.65625 40.375 33.015625 40.375 
z
M 52.59375 71.296875 
L 52.59375 62.3125 
Q 48.875 64.0625 45.09375 64.984375 
Q 41.3125 65.921875 37.59375 65.921875 
Q 27.828125 65.921875 22.671875 59.328125 
Q 17.53125 52.734375 16.796875 39.40625 
Q 19.671875 43.65625 24.015625 45.921875 
Q 28.375 48.1875 33.59375 48.1875 
Q 44.578125 48.1875 50.953125 41.515625 
Q 57.328125 34.859375 57.328125 23.390625 
Q 57.328125 12.15625 50.6875 5.359375 
Q 44.046875 -1.421875 33.015625 -1.421875 
Q 20.359375 -1.421875 13.671875 8.265625 
Q 6.984375 17.96875 6.984375 36.375 
Q 6.984375 53.65625 15.1875 63.9375 
Q 23.390625 74.21875 37.203125 74.21875 
Q 40.921875 74.21875 44.703125 73.484375 
Q 48.484375 72.75 52.59375 71.296875 
z
" id="DejaVuSans-36"/>
     </defs>
     <g transform="translate(309.987031 202.600938)scale(0.1 -0.1)">
      <use xlink:href="#DejaVuSans-69"/>
      <use x="27.783203" xlink:href="#DejaVuSans-6e"/>
      <use x="91.162109" xlink:href="#DejaVuSans-74"/>
      <use x="130.371094" xlink:href="#DejaVuSans-65"/>
      <use x="191.894531" xlink:href="#DejaVuSans-6c"/>
      <use x="219.677734" xlink:href="#DejaVuSans-31"/>
      <use x="283.300781" xlink:href="#DejaVuSans-38"/>
      <use x="346.923828" xlink:href="#DejaVuSans-2e"/>
      <use x="378.710938" xlink:href="#DejaVuSans-30"/>
      <use x="442.333984" xlink:href="#DejaVuSans-2e"/>
      <use x="474.121094" xlink:href="#DejaVuSans-31"/>
      <use x="537.744141" xlink:href="#DejaVuSans-5f"/>
      <use x="587.744141" xlink:href="#DejaVuSans-6f"/>
      <use x="648.925781" xlink:href="#DejaVuSans-70"/>
      <use x="712.402344" xlink:href="#DejaVuSans-74"/>
      <use x="751.611328" xlink:href="#DejaVuSans-36"/>
      <use x="815.234375" xlink:href="#DejaVuSans-36"/>
      <use x="878.857422" xlink:href="#DejaVuSans-20"/>
      <use x="910.644531" xlink:href="#DejaVuSans-2d"/>
      <use x="946.728516" xlink:href="#DejaVuSans-20"/>
      <use x="978.515625" xlink:href="#DejaVuSans-6d"/>
      <use x="1075.927734" xlink:href="#DejaVuSans-70"/>
      <use x="1139.404297" xlink:href="#DejaVuSans-74"/>
      <use x="1178.613281" xlink:href="#DejaVuSans-32"/>
      <use x="1242.236328" xlink:href="#DejaVuSans-2e"/>
      <use x="1274.023438" xlink:href="#DejaVuSans-31"/>
      <use x="1337.646484" xlink:href="#DejaVuSans-38"/>
     </g>
    </g>
   </g>
  </g>
 </g>
 <defs>
  <clipPath id="p2ac6fab24a">
   <rect height="190.26" width="195.3" x="65.803125" y="22.318125"/>
  </clipPath>
 </defs>
</svg>
